<svg id="Layer_1" data-name="Layer 1" xmlns="http://www.w3.org/2000/svg" viewBox="0 0 769 252"><defs><style>.cls-1{fill:#ffbd03;}</style></defs><title>LOAD ICONS</title><path d="M186.73,77.42A2.31,2.31,0,0,1,189,75.1h14.41a2.39,2.39,0,0,1,2.3,2.32v65.05h28.81a2.3,2.3,0,0,1,2.3,2.31v13.28a2.31,2.31,0,0,1-2.3,2.32H189a2.31,2.31,0,0,1-2.3-2.32Z"/><path d="M279.34,73.89a43.85,43.85,0,1,1-43.47,44c0-24.36,19.25-44,43.47-44m0,68.21a24.37,24.37,0,0,0,0-48.73c-13.2,0-24.1,11.09-24.1,24.49a24.31,24.31,0,0,0,24.1,24.24"/><path d="M319.88,157.21l37.89-82a2.44,2.44,0,0,1,2.06-1.33H361a2.46,2.46,0,0,1,2.06,1.33l37.89,82a2.15,2.15,0,0,1-2.05,3.17H385.5c-2.18,0-3.15-.74-4.24-3l-4.36-9.62H344l-4.36,9.74a4.51,4.51,0,0,1-4.36,2.93H321.94a2.15,2.15,0,0,1-2.06-3.17m49.76-26.07L360.43,111h-.12l-9.08,20.1Z"/><path d="M404.85,77.42A2.29,2.29,0,0,1,407,75.1h29.54a42.64,42.64,0,0,1,0,85.28H407a2.29,2.29,0,0,1-2.18-2.32Zm30.51,64.92c13.68,0,23.61-10.83,23.61-24.72S449,93,435.36,93H423.74v49.33Z"/><path class="cls-1" d="M487.77,77.42a2.31,2.31,0,0,1,2.3-2.32h14.41a2.39,2.39,0,0,1,2.3,2.32v65.05h28.81a2.3,2.3,0,0,1,2.3,2.31v13.28a2.31,2.31,0,0,1-2.3,2.32H490.07a2.31,2.31,0,0,1-2.3-2.32Z"/><path class="cls-1" d="M543.57,90a2.39,2.39,0,0,1,2.3-2.31H560.4A2.39,2.39,0,0,1,562.7,90v68.06a2.39,2.39,0,0,1-2.3,2.32H545.87a2.39,2.39,0,0,1-2.3-2.32Z"/><path class="cls-1" d="M577.34,76.08a2.28,2.28,0,0,1,2.3-2.19h3L631,120.67h.11V77.42a2.31,2.31,0,0,1,2.3-2.32h14.54a2.4,2.4,0,0,1,2.3,2.32v82a2.29,2.29,0,0,1-2.3,2.19H646a3.62,3.62,0,0,1-1.58-.6l-47.82-48.37h-.12v45.44a2.3,2.3,0,0,1-2.3,2.32H579.76a2.39,2.39,0,0,1-2.3-2.32Z"/><path class="cls-1" d="M667.28,160.38h56.3c4.26-5.81,8.22-11.83,11.87-17.91H683.87V126H744.6c3.15-6.11,6-12.13,8.55-17.91H683.87V93h75.58c2.67-6.82,4.83-12.92,6.5-17.91H667.28a2.31,2.31,0,0,0-2.3,2.32v80.64a2.31,2.31,0,0,0,2.3,2.32"/><path d="M569.25,61a16.69,16.69,0,1,1-16.68-16.79A16.73,16.73,0,0,1,569.25,61"/><path d="M552.86,1c17,.4,31.55,6.68,43.3,19.33,2.27,2.44,2.59,5.07.79,7.86-1.55,2.43-3.9,2.85-6.54,2.28a6.77,6.77,0,0,1-3.19-2.16c-21-20.48-48.35-20.49-69.27,0-3,2.89-6.61,3.25-9,.9-2.69-2.6-2.55-6.12.55-9.38C521.25,7.4,535.73,1.27,552.86,1"/><path d="M583.26,42.52a5.71,5.71,0,0,1-3.9,5.78,5.77,5.77,0,0,1-7-2.13c-3.84-4.9-8.56-8.31-14.76-9.58-9.1-1.85-16.69.85-23.08,7.4-.73.75-1.31,1.64-2,2.4-2.5,2.68-5.79,3.07-8.4,1s-3.08-5.71-.77-8.76c6.42-8.47,14.91-13.53,25.44-14.49,13.13-1.2,24,3.43,32.4,13.8,1.47,1.82,2,3.1,2,4.56"/><path d="M51,225.74a25.11,25.11,0,1,0,25.1-25.25A25.18,25.18,0,0,0,51,225.74"/><path d="M3.05,175.4v39.53a6.48,6.48,0,0,0,6.46,6.49H31.83a6.52,6.52,0,0,0,6.28-5.08,39.06,39.06,0,0,1,76,0,6.52,6.52,0,0,0,6.28,5.08h33.3a6.49,6.49,0,0,0,5.67-9.59l-32.93-61a6.52,6.52,0,0,1,0-6.24L159.21,85a6.49,6.49,0,0,0-5.65-9.64H59.33a6.41,6.41,0,0,0-5.28,2.76c-6.52,9.38-27.78,40.05-34.26,50-7,10.75-15.09,40.27-16.52,45.59a6.35,6.35,0,0,0-.22,1.68m43-37.79.62-4.72A6.58,6.58,0,0,1,47.83,130l19.78-28.25A6.45,6.45,0,0,1,72.89,99H96.55a6.48,6.48,0,0,1,6.46,6.5v33a6.48,6.48,0,0,1-6.46,6.5H52.48a6.48,6.48,0,0,1-6.39-7.36"/><path d="M184,217.38l-16.66-7.07V183l21.68,9.2c2.39,1,3.95-6.37,3.95-3.75V211.4a6.46,6.46,0,0,1-9,6"/><path class="cls-1" d="M713.19,183.07H167.38V210.5H645.47c27.25-1.4,49.71-7,67.72-27.43"/></svg>