<svg id="Layer_1" data-name="Layer 1" xmlns="http://www.w3.org/2000/svg" viewBox="0 0 266.01 250"><defs><style>.cls-1{fill:#fff;}</style></defs><title>LOAD ICONS</title><path class="cls-1" d="M15,0H155.67V.35q-12.42,21.74-14.15,23.29H104.07a59.35,59.35,0,0,1,10.53,25h40q.69.16.69.69-13.45,22.77-13.8,23H115.63q-.85,11.56-9.84,28.3-12.24,16.74-23.12,21.75-20.37,11-39,11v.35q0,1.55,9.14,13.63l69.38,95.09V247a.61.61,0,0,1-.69.7H91Q8.47,138.75,8.46,138.23V116.14l.35-.86a104.68,104.68,0,0,0,17.08,1.21q46.08,0,57.47-34a31.06,31.06,0,0,0,1.73-10.18H1.56c-.46,0-.69-.29-.69-.86Q14.67,48.66,15,48.67H81.46v-.35Q75.6,35.21,59.37,28q-11.73-4.32-21-4.32H1.21v-.86Q14.68,0,15,0Z"/><rect class="cls-1" x="213.47" y="0.4" width="9.42" height="182.01"/><polygon class="cls-1" points="171.21 168.66 218.18 250 265.14 168.66 171.21 168.66"/></svg>