<svg id="Layer_1" data-name="Layer 1" xmlns="http://www.w3.org/2000/svg" viewBox="0 0 224.55 250"><defs><style>.cls-1{fill:#fff;}</style></defs><title>LOAD ICONS</title><path class="cls-1" d="M120.33,213.72c-11.19-21.27-6.62-43.37-7-64.85-.47-28.84-3.7-22.34,22.5-29.27,6.6-1.75,13.16-3.79,19.86-5,5-.91,6.79-2.89,6.7-8.18-.33-20.54-.1-41.09-.15-61.63,0-9.12-1.65-11.08-10.7-12.23-4.33-.55-7.65-2.51-6.4-6.81.69-2.38,4.4-5.2,7-5.48,12.24-1.3,22.27,8.09,22.37,20.64.16,21.77.2,43.53-.07,65.3-.06,5,1.13,7.24,6.41,8.32,11.69,2.39,23.16,5.88,34.81,8.54,5.83,1.32,7.81,4.35,7.76,10.27-.16,17.6.37,35.2.36,52.81,0,23.87-13.69,39.77-32.33,51.69-24.56,15.71-21.93,17.08-46.84-1-11.62-8.43-22.46-11.35-36-11.05-28.59.62-57.22.21-85.83.15C8.9,225.9.37,218.28.3,204.49q-.36-81.44,0-162.87C.37,28.29,10.39,18.92,22.84,20.3c2.71.31,5.05,3.95,7.56,6.06-2.31,2-4.35,5.32-7,5.9-9.28,2-10.49,3-10.49,12.47q0,78.13,0,156.27c0,10.82,1.92,12.7,12.83,12.7l87.3,0Zm90.57-78.84c-13.82-3.48-27.46-6.95-41.15-10.28a9.64,9.64,0,0,0-4.3.37c-11.61,2.8-23.18,5.74-34.79,8.47-3.65.86-5.09,2.58-5,6.52.23,15.88.07,31.76.14,47.64,0,9.71,3.26,18.5,10.14,25.18s14.8,12.61,22.4,18.68c6.45,5.14,13.09,5.66,19.81.18,7.16-5.84,15.55-10.61,21.37-17.55,5.23-6.25,10.25-14.59,10.91-22.39C212,173.05,210.9,154.18,210.9,134.88Z"/><path class="cls-1" d="M87.16,42.21c-9,0-18.1-.16-27.14.06-5.78.14-8.76-2.11-8.71-8.07.06-8.8,0-17.61,0-26.41C51.33,2.68,53.89.07,59,.06,78.06,0,97.13,0,116.2,0c4.7,0,7.11,2.56,7.07,7.41-.08,9-.13,18.1,0,27.15.08,5.77-2.86,7.72-8.23,7.63-9.29-.14-18.58,0-27.88,0Zm23.5-29H64.75V29.42h45.91Z"/><path class="cls-1" d="M166,181.69c4.86-5.88,9.58-11.41,14.06-17.12,2.77-3.53,6.07-5.51,10-2.62s2.79,6.89.07,10.24c-7.37,9.08-14.85,18.07-22.73,27.62-6.31-5.52-12.68-10.46-18.15-16.25-1.67-1.77-.86-5.88-1.19-8.92,3.05-.1,6.49-1.12,9.05,0C160.25,175.92,162.73,179,166,181.69Z"/></svg>