<svg id="Layer_1" data-name="Layer 1" xmlns="http://www.w3.org/2000/svg" viewBox="0 0 250.3 250"><defs><style>.cls-1{fill:#fff;}</style></defs><title>LOAD ICONS</title><path class="cls-1" d="M20.86,137.43c7.49-8.26,17.51-12.79,28.2-16C67.24,116,86,115,104.81,115c2.42,0,2.9,1,2.86,3.09a97.64,97.64,0,0,0,.16,11.35c.29,3.13-1,3.54-3.7,3.49a199.54,199.54,0,0,0-42.37,3.56c-17.17,3.39-30.82,11.42-38.85,27.72C12.88,184.59,18.64,208,37.46,222c26.11,19.4,61.28,8.83,72.46-21.84,4.87-13.35,6.3-27.3,6.85-41.39.6-15.32-.66-30.59-1.45-45.87-1.08-21.06.28-41.89,5.57-62.45,9-35,43.09-53,68.75-50.12,26.75,3,45.19,18.06,55.54,42.22,9.87,23,4.3,44.38-10.54,63.89-10.81,14.2-25.85,20.71-42.55,24.39-15.34,3.38-30.93,4.17-46.59,4.14-2.4,0-3.31-.63-3.18-3.14.24-4.71-1.54-10.7.74-13.77s8.53-.76,13.05-1c14.53-.72,29-1.87,42.89-6.63,26.94-9.24,40.32-39.25,28.58-63.9C219.1,28.73,200.18,17,182.06,18c-15.62.93-36.68,12.57-43,34s-6.8,43.27-5.41,65.22c1.36,21.47,2.3,42.88-.93,64.24-2.4,15.89-5.93,31.59-16.88,44-27.49,31.22-71,33.94-99.87.43C-9.61,196.27-2.07,160,20.86,137.43Z"/></svg>