<svg id="Layer_1" data-name="Layer 1" xmlns="http://www.w3.org/2000/svg" viewBox="0 0 251.02 250"><defs><style>.cls-1{fill:#fff;}</style></defs><title>LOAD ICONS</title><path class="cls-1" d="M182.6,36.6c-4.74,3.67-8.59,7.34-13.1,9.82-1.95,1.07-5.62.41-7.89-.71-56.82-28.19-125.5,3.72-140,65.2-9.93,42,9.37,85.77,47.42,107.58,37.26,21.35,85.64,15,116.64-14.73,27.45-26.32,42.33-72.92,17.06-119.88l11.43-15c25.29,31.63,33.78,99.4-13.55,146.48-45,44.73-115.07,46.28-162.14,4.14C-6.42,179.29-12.49,109.37,24.75,61.79A117.55,117.55,0,0,1,182.6,36.6Z"/><path class="cls-1" d="M140.44,72.75c-3.83,4.67-6.64,9.31-10.61,12.49-2.28,1.83-6.48,1.89-9.76,1.73-26.59-1.27-49,19.75-49,46.25s22.54,47.63,49,46.18c23.1-1.27,44.15-20.87,43.16-43.2-.58-13.1,5.2-19.58,14.77-25.28,11.45,24.21,1.61,57.18-22.35,74.82-24.6,18.12-59.9,16-82.53-5C50.25,159.55,45.67,125.82,62,99,77.79,73,110.5,61.76,140.44,72.75Z"/><path class="cls-1" d="M225.49.45c0,16.43,7.26,25.74,24.93,24.74l.24,2.44c-7.09,6.76-14.12,13.57-21.31,20.2a4.28,4.28,0,0,1-3.85.68c-8.22-4.26-10.67,1.72-14.33,7.13-15.38,22.78-32.47,44.21-55.45,59.81-6,4.1-14.11,5.12-21.19,7.74a23.09,23.09,0,0,0-6.18,3.39c-3.11,2.46-5.95,5.27-8.9,7.94L117,132.85c1.11-2.11,1.84-4.58,3.41-6.25,4.11-4.38,7.57-8,7.77-15.3.17-6.22,4.55-13,8.63-18.31,17-22.16,38-40.1,61.68-54.68,4.58-2.81,6-5.25,4.72-10.47-.61-2.51.6-6.29,2.32-8.38,5.57-6.76,11.76-13,17.71-19.46Z"/></svg>