<svg id="Layer_1" data-name="Layer 1" xmlns="http://www.w3.org/2000/svg" viewBox="0 0 215.41 250"><defs><style>.cls-1{fill:#fff;}</style></defs><title>LOAD ICONS</title><path class="cls-1" d="M113.15,0c6.8,2.65,13.16,5.78,17.32,12.29A27.29,27.29,0,1,1,83,38.83C76.25,24.52,83.47,7.09,98.4,1.54c1.29-.48,2.56-1,3.84-1.54Z"/><path class="cls-1" d="M106.44,165.62c-.19,2.07-.44,4.14-.54,6.21-1.07,22.18-2,44.36-3.24,66.53-.49,8.44-4.71,12-12.2,11.6S79.76,245.44,80,236.67q1-39.06,2.11-78.1c0-1.19-.12-2.38-.22-4.18-9.17.45-12.14-5.93-14.75-13.11-3.37-9.28-7.08-18.45-10.93-27.54-1.92-4.55-1.63-8.59,1.17-12.55,6.88-9.71,13.42-19.69,20.7-29.09,14-18,47.14-17.07,60.48,1.52,6.35,8.86,12.51,17.85,18.95,26.64,3.16,4.33,3.74,8.61,1.68,13.59-4.17,10.06-8.06,20.23-12.08,30.35-3.15,7.94-5.08,9.36-14.22,10.2,0,4.34-.14,8.73,0,13.11.81,23.2,1.74,46.4,2.54,69.6.28,8.17-3.27,12.44-10.3,12.84-7.69.43-11.76-3-12.31-11.42-1.32-20.34-2.26-40.71-3.37-61.06-.21-3.94-.48-7.87-.73-11.81ZM130.3,126c7.85-18.11,8.8-15.58,0-24.52ZM85,124.94V101.36C77,109.37,77,111.35,85,124.94Z"/><path class="cls-1" d="M152.05,73.35c13.47-11.1,32.15-8.63,41.38,5.56,6.93,10.65,13.66,21.45,19.88,32.52a17.56,17.56,0,0,1,1.51,10.82c-1.5,8.72-3.95,17.27-5.94,25.91-2.53,11-5.22,13-16.92,11.6,1,12.94,1.91,25.74,2.89,38.54.58,7.65,1.37,15.28,1.77,22.93.38,7.39-3.66,12.3-10,12.7-6.52.42-11-4.28-11.61-12q-2-26.56-4.08-53.11a8.15,8.15,0,0,0-2-5.12q-1.28,24.48-2.57,48.95a110.84,110.84,0,0,1-1.06,12.65A10.25,10.25,0,0,1,154,233.92c-5.35-.51-8-3.51-7.85-9.95.49-19.56,1.19-39.11,1.92-58.66a8.79,8.79,0,0,1,1.54-4.95c11.47-14.16,15.19-31.8,21.5-48.22,2.21-5.77-.11-11.92-3.82-17.14C162.15,87.81,157.11,80.56,152.05,73.35Z"/><path class="cls-1" d="M63.43,73.4c-5,7.08-9.76,13.85-14.57,20.58-5.34,7.47-6.55,15.29-2.89,24,4.47,10.58,8.5,21.35,12.81,32,.91,2.23,1.72,5,3.48,6.28,5.32,3.92,5.62,9.51,5.79,15.11q.78,26.33,1.19,52.66c.11,6.55-2.39,9.42-7.89,9.94S50.65,231,50,225.31C49,215.09,48.56,204.79,48,194.51s-1-20.53-2.72-31c-.26,1.56-.65,3.1-.77,4.66q-2.09,26.25-4.1,52.51c-.1,1.21-.07,2.44-.28,3.62-1.13,6.16-5.59,9.91-11.3,9.59a10.37,10.37,0,0,1-10-11.4c.7-12.89,1.92-25.75,2.89-38.63.6-8,1.12-16,1.69-24.13-11.89,1.3-14.38-.63-17-12.13C4.53,139.17,2.05,130.83.59,122.3a17.7,17.7,0,0,1,1.48-10.82c6.09-10.91,12.71-21.55,19.49-32.06C31,64.82,49.56,62.13,63.43,73.4ZM23.67,114.56c-5.48,5.57-1.42,10.18,0,14.81Z"/><path class="cls-1" d="M193.26,37.94a23.89,23.89,0,1,1-47.77-.25c.08-13.6,10.84-24.49,24-24.33A24,24,0,0,1,193.26,37.94Z"/><path class="cls-1" d="M69.91,37.73a23.92,23.92,0,1,1-47.84.16,23.93,23.93,0,1,1,47.84-.16Z"/></svg>