<svg id="Layer_1" data-name="Layer 1" xmlns="http://www.w3.org/2000/svg" viewBox="0 0 386.67 250"><defs><style>.cls-1{fill:#fff;}</style></defs><title>LOAD ICONS</title><path class="cls-1" d="M356.28,191l1.14,13.82-17.17-.58-1-14.62,17,1.38Zm-35.15-11.1a2.13,2.13,0,0,1-2-1.77l-.1-.7,42.83,3v.09a1.61,1.61,0,0,1-.41,1.29,1.58,1.58,0,0,1-1.26.51l-39.1-2.43Zm-5.69,19.74-.79-13.53,7,.82.73,13.12-6.95-.41Zm-6.73-22.35c-1.84,0-3.39-2.3-3.45-5.22s1.39-5.3,3.24-5.34,3.38,2.3,3.45,5.21-1.39,5.31-3.24,5.35Zm-9.6.18c-2,0-3.71-2.51-3.8-5.71s1.55-5.82,3.56-5.86,3.73,2.51,3.8,5.71-1.55,5.82-3.56,5.86Zm62.23-7.64v0a1.6,1.6,0,0,1-.43,1.3,1.58,1.58,0,0,1-1.3.48l-38.53-3.82a3.13,3.13,0,0,1-2.79-2.63l43,4.64Zm.28,5.46a1.51,1.51,0,0,1-.43,1.29,1.58,1.58,0,0,1-1.26.5L321.45,174a3,3,0,0,1-2.77-2.56l42.92,3.81,0,.07Zm2.92-2.72c1.48-.17,2.91,1.91,3.26,4.66s-.61,5.1-2.09,5.28c-.1,0-.21-.08-.32-.09l-.88-9.83,0,0Zm8.38,18.26,1.39,12.07-4.41-.25-1.38-12.14,4.4.32Zm-1.8-17.33c1.33-.16,2.63,1.72,2.94,4.19s-.54,4.6-1.87,4.76-2.64-1.72-2.94-4.2.56-4.6,1.87-4.75ZM216.59,236.72c-9,0-16.4-10.46-16.4-23.36,0-9.32,3.86-17.34,9.39-21.09a30.77,30.77,0,0,0-2.78,13c0,12.89,7.35,23.35,16.4,23.35a12.48,12.48,0,0,0,7-2.27c-2.93,6.23-7.93,10.34-13.59,10.34ZM181.41,10l0-1.75A1.62,1.62,0,0,1,182.12,7a1.56,1.56,0,0,1,1.39-.2L193.74,10a1.56,1.56,0,0,1,1.07,1.54l0,1.74a1.55,1.55,0,0,1-2,1.46L182.51,11.5a1.58,1.58,0,0,1-1.1-1.54ZM34.52,235.08c-5.06,0-9.17-7.39-9.17-16.49,0-6.59,2.16-12.26,5.27-14.9a26.41,26.41,0,0,0-1.57,9.2c0,9.11,4.12,16.49,9.18,16.49a6.06,6.06,0,0,0,3.92-1.6c-1.65,4.41-4.46,7.3-7.63,7.3ZM204.7,16a1.53,1.53,0,0,1,.66-1.24,1.56,1.56,0,0,1,1.37-.22L217,17.87a1.58,1.58,0,0,1,1.07,1.53l0,1.75a1.69,1.69,0,0,1-.67,1.24,1.56,1.56,0,0,1-1.39.21l-10.23-3.28a1.55,1.55,0,0,1-1.07-1.53l0-1.75Zm23.23,7.82a1.49,1.49,0,0,1,.65-1.23,1.57,1.57,0,0,1,1.39-.22l10.23,3.28a1.56,1.56,0,0,1,1.07,1.54l0,1.75a1.56,1.56,0,0,1-2,1.45L229,27.14a1.56,1.56,0,0,1-1.09-1.53l.06-1.75Zm23.22,7.83a1.56,1.56,0,0,1,2-1.45l10.22,3.27a1.58,1.58,0,0,1,1.1,1.55l-.05,1.74A1.58,1.58,0,0,1,263.8,38a1.57,1.57,0,0,1-1.39.21L252.18,35a1.58,1.58,0,0,1-1.07-1.54l0-1.74ZM386.77,214.14s-1.76-24.46-3.09-26.08c-1.86-2.28-6.05-2.61-6.05-2.61s-.75-9.53-1.86-20.14c-16.79-4.63-80.78-11.15-82.9-11.38s-7.57,1-7.57,1l1,24.34-32.76.49c-10.27-23.72-34-18.34-34-18.34l-35.93,4.65,10.16-7.81c-1.05-26-.64-92.7,1.82-95.38,2.68-2.94,60.63-17.86,64.79-18.59,3.11-.55,9.77.14,12.93.51l-.67-9.68A5.83,5.83,0,0,0,268.67,30L179.87.31a6,6,0,0,0-8,5.73V94.82l-5.71.44V2a1.21,1.21,0,0,0-.4-.81A.79.79,0,0,0,165,1L12.25,61.86,156.91,16.67,10.25,76.88,155.47,37.15,8.62,93.09,155.19,56.71,7,109.23,154.66,75.68,5.24,125.28l147.4-28.9L3.5,141.27l149.27-26.38-151,42.28,150.71-22.83L-.1,173.29,152,154.65l-152.1,30,117.56-7.32L15.85,191c-3.73,11.64-5,34.54-5,34.54l8.81.33c0,14.75,13.36,18.25,13.36,18.25h25.1c12.72,0,15.65-20.86,15.65-20.86h5.55s1,4.56,6.52,4.56S94,224.9,94,224.9h6.2c1.3,12.38,7.86,18.91,13.69,18.91h22.17c12.39,0,14.66-28.36,14.66-28.36l26.74-2.61-.32,10.43h13.78c2.85,19.88,18.5,26.73,24.2,26.73h21.36c17.28,0,21.52-27.7,21.52-27.7h20.54s1.63,26.08,32.93,26.08,28-34.89,28-34.89l47.28.65ZM258.29,173.39a3.65,3.65,0,0,0,2.64.89l14.32-1a3.62,3.62,0,0,0,3.36-3.67L278.4,158a3.62,3.62,0,0,0-4-3.52l-14.79,1.63a3.62,3.62,0,0,0-3.22,3.83l.69,11a3.61,3.61,0,0,0,1.22,2.5ZM210.5,130a1.56,1.56,0,0,0-1.32,1.65l.3,4.66a1.58,1.58,0,0,0,.57,1.14,1.61,1.61,0,0,0,1.23.32l6.26-1a1.57,1.57,0,0,0,1.33-1.55v-4.67a1.62,1.62,0,0,0-.54-1.19,1.68,1.68,0,0,0-1.27-.36l-6.56,1Zm129.32,14.56c-2.19,0-3.65,2.46-3.3,5.5s2.36,5.5,4.52,5.5,3.64-2.46,3.3-5.5-2.38-5.5-4.52-5.5ZM268.24,50.45a1.74,1.74,0,0,0-.15,1.72c3.83,8,15.34,32.91,21.11,53.05a5.1,5.1,0,0,0,3.41,3.47,421.66,421.66,0,0,0,73.77,14.84,1.23,1.23,0,0,0,1.26-1.68C364.71,115,354,91,340.18,72a8.7,8.7,0,0,0-3.68-2.89c-9-3.73-43.63-17.53-66.7-19.43a1.73,1.73,0,0,0-1.56.74ZM247.4,104.18A7.81,7.81,0,0,1,251,108a3.25,3.25,0,0,0,3.62,2l21.12-3.89a3.32,3.32,0,0,0,2.53-4.29C275,92,265.94,64.88,260.33,53.21a3.3,3.3,0,0,0-3.69-1.78c-8.83,2-38.67,8.75-48.58,12.91a3.33,3.33,0,0,0-2,3c-.09,6.62-.37,27.71-.28,39.32a3.26,3.26,0,0,0,1.26,2.56,3.31,3.31,0,0,0,2.79.64c9.73-2.19,34.23-7.45,37.58-5.69Z"/></svg>