<svg id="Layer_1" data-name="Layer 1" xmlns="http://www.w3.org/2000/svg" viewBox="0 0 251.81 250"><title>LOAD ICONS</title><path d="M125.91,0a125,125,0,1,0,125,125A125.14,125.14,0,0,0,125.91,0Zm-19,19.79a106,106,0,0,1,13.65-1.6V67a199.8,199.8,0,0,1-47.28-6.6C81.45,41.34,93.2,26.86,106.86,19.79Zm71.73,40.64A200,200,0,0,1,131.3,67V18.19A105.57,105.57,0,0,1,145,19.79C158.61,26.86,170.37,41.34,178.59,60.43ZM125.91,77.9a212.88,212.88,0,0,0,56.54-7.36A170.7,170.7,0,0,1,191,125c0,4.63-.18,9.29-.52,13.84a163.45,163.45,0,0,1-9.27,44,213.55,213.55,0,0,0-55.33-7,214.08,214.08,0,0,0-55.35,7c-6.19-16.82-9.77-36.65-9.77-57.88a171,171,0,0,1,8.57-54.46A212.9,212.9,0,0,0,125.91,77.9ZM49,119.6H19.1A106.35,106.35,0,0,1,41.27,59.73,137.63,137.63,0,0,0,58.07,67,179.62,179.62,0,0,0,49,119.6Zm0,10.79a178,178,0,0,0,10.26,56A140.6,140.6,0,0,0,43.39,193,106.46,106.46,0,0,1,19.1,130.39Zm14.34,66a127,127,0,0,0,7.27,13.75,104.32,104.32,0,0,0,7.25,10.37A107.58,107.58,0,0,1,51,201.25C54.9,199.46,59,197.84,63.31,196.36Zm11.42-3.45a201.39,201.39,0,0,1,45.78-6.2v45.1a106,106,0,0,1-13.65-1.6C94,223.56,82.85,210.35,74.73,192.91Zm56.57,38.9v-45.1a201.38,201.38,0,0,1,45.78,6.21c-8.18,17.54-19.42,30.7-32.25,37.32A107.49,107.49,0,0,1,131.3,231.81Zm57.13-35.48c4.32,1.49,8.46,3.12,12.37,4.92a107.38,107.38,0,0,1-27.1,19.38A116,116,0,0,0,188.43,196.33Zm4.09-10a173.47,173.47,0,0,0,9.86-46.62c.23-3.08.36-6.2.44-9.34h29.9A106.47,106.47,0,0,1,208.42,193,140.11,140.11,0,0,0,192.52,186.35Zm10.32-66.75A179.62,179.62,0,0,0,193.75,67a137.48,137.48,0,0,0,16.79-7.24,106.43,106.43,0,0,1,22.18,59.87Zm.45-68.31a125.89,125.89,0,0,1-13.37,5.61,128.64,128.64,0,0,0-8.69-17A104.27,104.27,0,0,0,174,29.52,107.4,107.4,0,0,1,203.29,51.29ZM77.83,29.52a104.32,104.32,0,0,0-7.25,10.37,128.6,128.6,0,0,0-8.68,17,124.16,124.16,0,0,1-13.37-5.61A107.25,107.25,0,0,1,77.83,29.52Z"/><path d="M68.41,112.53H76l3.49,17.63,4.15-17.63h8l4.2,17.54,3.44-17.54h7.12l-6.68,24.65H91.33l-3.88-16-4,16H75.12Z"/><path d="M106.68,112.53h7.56l3.48,17.63,4.16-17.63h8l4.2,17.54,3.44-17.54h7.12L138,137.18h-8.35l-3.89-16-4,16h-8.3Z"/><path d="M145,112.53h7.55L156,130.16l4.16-17.63h8l4.2,17.54,3.44-17.54h7.12l-6.67,24.65h-8.35l-3.89-16-4,16h-8.3Z"/></svg>