<svg id="Layer_1" data-name="Layer 1" xmlns="http://www.w3.org/2000/svg" viewBox="0 0 265.67 250"><defs><style>.cls-1{fill:#ffbc04;fill-rule:evenodd;}</style></defs><title>LOAD ICONS</title><path class="cls-1" d="M198.54,43c-2.43,3.91-4.44,7.35-6.71,10.61a4,4,0,0,1-2.92,1.11q-34.26.09-68.51.06-46,0-92,.05a37,37,0,0,0-6.9.51c-6.43,1.23-9.81,5.63-9.91,13.19-.15,11.46-.08,22.93-.08,34.39q0,41.44.05,82.9c0,9.45,4.23,13.91,13.72,14.25,6.65.24,13.33.18,20,.06a55.12,55.12,0,0,1,33.25,10.21c12.92,8.94,26.07,17.56,39.06,26.4,2.39,1.63,4.33,1.69,6.76,0,13.35-9.11,26.83-18,40.18-27.13a52.12,52.12,0,0,1,29.71-9.46c8,0,16,.1,24-.34s12.07-5,12.11-13.26c.08-19.1,0-38.21,0-57.31,0-9.78,0-19.55,0-29.33a6.51,6.51,0,0,1,.77-3.26c3.29-5.48,6.71-10.88,10.07-16.32a3.52,3.52,0,0,0,.26-1l.83.51v14q0,46.38,0,92.77c0,14.71-10.15,25.08-24.84,25.3-6.75.1-13.51.13-20.26,0a44.67,44.67,0,0,0-27,8.18c-12.91,9-26,17.63-39.07,26.4-7.19,4.82-13.33,4.72-20.51-.14Q90.35,232.55,70,218.87a41.1,41.1,0,0,0-23.12-7c-7.55-.07-15.11.07-22.66-.08C10,211.54,0,202.13-.11,187.94q-.33-60,0-120C0,52.69,10,43.11,25.29,43c33.06-.18,66.11-.09,99.16-.1l70.91,0Z"/><path class="cls-1" d="M225.74,21l28.08,17.65-5.14,8.24c-14.43,23.2-28.81,46.44-43.34,69.58a32.77,32.77,0,0,1-6.35,7.43c-8,6.81-16.14,13.36-24.24,20a14.61,14.61,0,0,1-2,1.35c-4,2.23-7.56.27-7-4.22.71-5.51,2.19-10.92,3.39-16.37.8-3.64,1.8-7.23,2.49-10.88A51,51,0,0,1,179,95.69c15.08-23.84,29.9-47.85,44.81-71.8C224.4,23,225,22.11,225.74,21Zm-29.58,94.51-14.1-8.85C180.8,112,179.46,117,178.63,122c-.15.93,1.62,2.4,2.78,3.24a2.88,2.88,0,0,0,2.72.06C188.12,122.23,192,119,196.16,115.49Z"/><path class="cls-1" d="M121.1,159.61c25.05,0,50.11.09,75.15-.08,4.81,0,8,4.65,5.67,8.7-1.37,2.34-3.57,3-6.13,3q-26.39,0-52.77,0H49c-1.16,0-2.32,0-3.47,0-3.85-.21-6.19-2.48-6.15-5.92s2.45-5.62,6.35-5.63q23.73,0,47.44,0h28Z"/><path class="cls-1" d="M172.67,84.5c-2.4,3.88-4.4,7.32-6.65,10.6a3.71,3.71,0,0,1-2.73.94q-41.83.08-83.67,0-16.78,0-33.57,0c-3.77,0-6.22-1.84-6.67-4.82-.57-3.78,2-6.71,6-6.74,8.26-.05,16.52,0,24.78,0l99.65,0Z"/><path class="cls-1" d="M158.17,121.93c-.93,4.06-1.79,7.74-2.67,11.59H45.86c-3.73,0-6.12-1.83-6.5-4.91-.49-3.86,2.15-6.66,6.41-6.67q15.18,0,30.38,0l78.88,0Z"/><path class="cls-1" d="M258,31.94,229.64,14.36c2.42-3.73,4.54-7.52,7.17-10.91,3-3.85,7.48-4.45,11.68-1.94s8.31,5.12,12.43,7.73c4.71,3,5.92,7.43,3.4,12.41-.48.94-1.05,1.85-1.61,2.75C261.22,26.82,259.71,29.21,258,31.94Z"/></svg>