<svg id="Layer_1" data-name="Layer 1" xmlns="http://www.w3.org/2000/svg" viewBox="0 0 387.45 250"><defs><style>.cls-1{fill:#fff;}</style></defs><title>LOAD ICONS</title><path class="cls-1" d="M180.73,104.16l7,8.75c-.66-7.41-1.77-28.38-2.19-36.32a2.37,2.37,0,0,0-1-1.84,2.4,2.4,0,0,0-2.1-.27c-5.47,1.89-10.73,4.24-13.51,5.54a3.54,3.54,0,0,0-2.07,3.22V104.1a3.55,3.55,0,0,0,1.5,2.89,3.5,3.5,0,0,0,3.22.44l9.23-3.27Zm12.68,130.62c-5.63,0-10.2-10.56-10.2-23.59,0-7.6,1.55-14.35,4-18.66a51.38,51.38,0,0,0-.69,8.46c0,13,4.57,23.6,10.21,23.6,2.35,0,4.51-1.85,6.23-4.94-1.47,8.85-5.18,15.13-9.52,15.13Zm-99-21.08h-23c-1.33-13.56-7.31-19.2-7.31-19.2,3,9.62,2.28,14.77,2.16,19.2H60.48c0-21.61-4.22-24.22-4.22-24.22l19.53-2.68c11.07,9.68,16,6.85,16,6.85,3.11,5.87,2.6,20,2.6,20ZM50.28,235.62c-2.27,0-4.12-6.68-4.12-14.92a37.84,37.84,0,0,1,1.6-11.79,52.87,52.87,0,0,0-.27,5.35c0,8.24,1.84,14.91,4.12,14.91.94,0,1.82-1.16,2.52-3.11-.6,5.59-2.09,9.56-3.85,9.56Zm-12.28,0c-2.27,0-4.11-6.68-4.11-14.92a37.84,37.84,0,0,1,1.6-11.79,52.77,52.77,0,0,0-.28,5.35c0,8.24,1.85,14.91,4.12,14.91,1,0,1.82-1.16,2.52-3.11-.59,5.59-2.09,9.56-3.85,9.56ZM275.08,161a4.73,4.73,0,0,1,4.87-4.84l62.92,1.55a4.62,4.62,0,0,1,4.5,4.32l-72.29-1Zm1.23-14.33a4.65,4.65,0,0,1,3.45-1.33l62.57,2.27A4.64,4.64,0,0,1,346.8,152l-71.89-1.86a4.63,4.63,0,0,1,1.4-3.42Zm-.18-10.82a4.61,4.61,0,0,1,3.43-1.3l62.24,3a4.65,4.65,0,0,1,4.43,4.37l-71.49-2.68a4.57,4.57,0,0,1,1.39-3.38ZM276,125.08a4.51,4.51,0,0,1,3.4-1.25l61.9,3.68a4.73,4.73,0,0,1,4.42,4.4l-71.11-3.48a4.46,4.46,0,0,1,1.39-3.35Zm94.45,40.12a3.47,3.47,0,0,1,3.47,3.48V176H357.17l-.58-10.75Zm16.2,38.93c-3.25-.12-11.46-.4-22.43-.76.09,4.56.16,11.36-.15,17.07h-3.11s.23-9.39.13-17.17c-5.92-.19-12.51-.41-19.48-.62v11.74L299,213.87l0-12.41c-8-.2-15.79-.36-22.88-.5.13,4.22.28,12.65-.09,19.48h-3.11s.28-11.43.08-19.53c-7-.11-13.2-.17-18.24-.17-33.33,0-38,.7-38.43.78a.92.92,0,0,0,.3-.08l-1.86-5.21c2.5-.89,26.11-1,40-1,33.37,0,117.63,2.9,131.59,3.39-.09-1.25-.43-4.28-.56-5.24-.48-3.44-8.8-7.48-13.22-7.62l-14.72-.48-.06-3.19,17,.43a3.12,3.12,0,0,0,2.34-.93,3.22,3.22,0,0,0,.93-2.34l-.44-13.73a9.81,9.81,0,0,0-5.23-8.39c-3.53-1.86-9-3.82-17-4.25l-2.1-28.31a8.41,8.41,0,0,0-6.83-7.64l-41-7.79-5.27-24.93a6,6,0,0,0-4.78-4.67c-7.47-1.36-20.88-3.44-40.61-5.12L249.38,74c-15-1.15-33.2-2-54.87-2.26A4.13,4.13,0,0,0,190.34,76l1.34,36a23.86,23.86,0,0,1,8.43-5.87c3-1.26,7.53-1.28,10.72-.66l42.91,7.63a10,10,0,0,1,8.06,9.64l.37,27.28a3.46,3.46,0,0,1-1,2.5,3.23,3.23,0,0,1-.59.46c-23.95-14.26-52.46-10.5-58.39-5,11-1.58,17.28,2,20.49,4.93a8.71,8.71,0,0,1,2.79,6.53l-.17,9.66a3.28,3.28,0,0,0,3.25,3.33h1.53V159.59H248.5a4.84,4.84,0,0,1,4.84,4.84v8.07l9.14.05,84,1.49a4.08,4.08,0,0,1,4,3.83l.11,1.84-84.86-1.84,1,10.95-6.58-8.25H211s-3.46-18.9-14.52-18.9c-21.67,0-21.2,54.16-21.2,54.16l-4.15-.39c.92-28.12,5.76-43.33,5.76-43.33S168.63,174.8,164,175s-3.8-5.3-3.8-5.3l-.12-94a116.54,116.54,0,0,1,29.05-11.41c71.32,1.19,103,7.44,110.63,9.21-1.88-5.22-10.3-9.84-17.69-11.34V50.45a9.12,9.12,0,0,0-3.46-1.08V22.51a32.38,32.38,0,0,0-1.21-4.85s-2.07-4.49-5.36-1.72,0,6.57,0,6.57V60.78c-1-.09-4-.65-4-.65l-.3-31.21L157.11,16.38V7.47a32.38,32.38,0,0,0-1.21-4.85S153.82-1.87,150.54.9s0,6.57,0,6.57V42.9s-.34-.17-3.63,0l-1,67.77h-3.74V16.23a.82.82,0,0,0-.42-.71.8.8,0,0,0-.82,0L17.43,93.67,132.51,33.21,16.19,105.5,131.06,53.84,15.18,118.18l115.6-44.91L14.16,130.72,130.23,92.14l-117.12,51L128.2,112.78,12.05,155.46,128.35,131,11,167.64l117-17.4L2.45,181.79l125.12-11.55L.83,192.85,16,195l.71,10.8h13c0,29.38,3.28,39.58,6.73,39.58H78.63c3.45,0,5.7-9.85,5.7-9.85h31.12s.91,9.38,4.71,9.38h45.29c5.71,0,5.66-10.94,5.66-10.94h8.12C180.1,237.56,184.07,250,191,250h26.27c6.4,0,11.42-21.78,11.42-21.78H321c1.21,6.84,4.4,16.49,12.94,20.92h27.15s9.84-4.34,12.37-20.92h8.06c4.33-6.36,5.22-16.24,5.12-24.09ZM181.32,156.31a1.57,1.57,0,0,0,1.41.15l5.24-2.09a1.51,1.51,0,0,0,.94-1.4V127.48a1.5,1.5,0,0,0-2.06-1.41l-5.24,2.09a1.51,1.51,0,0,0-1,1.41v25.48a1.55,1.55,0,0,0,.66,1.26Zm-11.7-13.61-3.42,1.37a1,1,0,0,0-.62.92v16.68a1,1,0,0,0,1.35.92l3.42-1.37a1,1,0,0,0,.62-.92V143.62a1,1,0,0,0-.42-.82,1.09,1.09,0,0,0-.93-.1Z"/></svg>