<svg id="Layer_1" data-name="Layer 1" xmlns="http://www.w3.org/2000/svg" viewBox="0 0 200.75 250"><defs><style>.cls-1{fill:#fff;}</style></defs><title>LOAD ICONS</title><path class="cls-1" d="M73.48,89.79c14.65,0,28.42-.19,42.19.08,6.85.13,10.9,3.9,11.86,11,1.7,12.62,3.82,25.18,5.46,37.8,1.67,12.8-.63,15.72-14.07,18.36-1.74,16.68-3.54,33.58-5.26,50.48-1.19,11.59-2.37,23.19-3.36,34.8-.46,5.42-3.27,7.36-8.49,7.58-14.37.58-14.9-.2-16.27-14.24-3.06-31.28-6.55-62.52-10.13-93.75a35.91,35.91,0,0,0-3.83-11.42c-9-18.19-18.26-36.24-27.35-54.39-3.52-7-2.29-12.62,3.13-15.34S58.22,60.24,61.77,67C65.91,74.92,69.93,82.87,73.48,89.79Z"/><path class="cls-1" d="M188.68,150c-2.23,21.41-4.64,42.39-6.44,63.43-.52,6-2.22,8.66-8.67,8.72s-10-1.17-10.63-8.52c-1.53-19.16-3.75-38.27-5.51-57.42-.37-4-.85-6.58-5.82-8-2.82-.82-6.26-6.3-6.08-9.48.61-10.77,2.71-21.46,4.25-32.17.88-6.09,4.29-8.93,10.54-8.78,8.4.19,16.81.06,25.21,0,5.76,0,9,2.61,9.74,8.54,1.24,9.39,2.89,18.72,4.31,28.08C201.16,144.75,199.56,147.13,188.68,150Z"/><path class="cls-1" d="M43.83,150.13c-2.25,21.5-4.72,43-6.61,64.52-.55,6.3-3.51,7.55-8.95,7.42-5.18-.13-9.31.11-9.91-7.19-1.57-19.42-4-38.76-5.89-58.16-.41-4.27-.35-7.48-6.05-8.55C4,147.71.45,142.71.66,140a269.23,269.23,0,0,1,5.11-35.3c.6-2.78,5.28-6.24,8.41-6.61,8-.94,16.23-.42,24.35-.23,1.64,0,3.95.75,4.75,2a67.84,67.84,0,0,1,11.37,41.5c-.17,3.46-5.95,6.66-9.14,10Z"/><path class="cls-1" d="M117.08,63.16c0,10.86-8.16,18.84-19.14,18.72A18.56,18.56,0,0,1,79.18,63.45,19.28,19.28,0,0,1,98.09,44.09,18.65,18.65,0,0,1,117.08,63.16Z"/><path class="cls-1" d="M187.18,76.61a14.33,14.33,0,0,1-14,14.87A14.9,14.9,0,0,1,157.72,77c-.14-8,7-15.1,15.08-15A14.67,14.67,0,0,1,187.18,76.61Z"/><path class="cls-1" d="M36.14,88.72c-6.16,4.37-12.52,3.91-18.24-1-5-4.28-6.23-10.22-3.79-16.24C17,64.43,22.7,61.62,29,62,31.42,71.18,33.66,79.52,36.14,88.72Z"/><path class="cls-1" d="M102.09,15.41c0,3.26.37,6.58-.15,9.75-.28,1.7-2.09,3.16-3.21,4.73-1.36-1.34-3.81-2.62-3.88-4-.39-7.3-.33-14.65,0-21.95C94.91,2.56,96.89,1.3,98,0c1.35,1.34,3.64,2.54,3.87,4.05.56,3.71.18,7.57.18,11.36Z"/><path class="cls-1" d="M79.31,34.52c-1,1.38-1.64,3.18-2.81,3.63s-3.47-.11-4-1Q66,26.94,60.2,16.34c-.51-.92.28-3.37,1.22-4.05s3.87-.8,4.31-.12C70.37,19.38,74.69,26.8,79.31,34.52Z"/><path class="cls-1" d="M120.44,39.51c-.67-2.47-2.35-5.12-1.63-6.58A212.25,212.25,0,0,1,130.14,13.4c.7-1.09,3.25-1.56,4.78-1.3.72.12,1.91,3.07,1.43,4-3.93,7.32-8.17,14.48-12.41,21.63C123.6,38.26,122.57,38.44,120.44,39.51Z"/></svg>