<svg id="Layer_1" data-name="Layer 1" xmlns="http://www.w3.org/2000/svg" viewBox="0 0 387.12 250"><defs><style>.cls-1{fill:#fff;}</style></defs><title>LOAD ICONS</title><path class="cls-1" d="M356.76,191l1.14,13.82-17.17-.58-1-14.62,17,1.38Zm-35.15-11.1a2.13,2.13,0,0,1-2-1.77l-.1-.7,42.83,3v.09a1.59,1.59,0,0,1-1.67,1.8l-39.1-2.43Zm-5.68,19.74-.8-13.53,7,.82.73,13.12-6.94-.41Zm-6.74-22.35c-1.84,0-3.38-2.3-3.45-5.22s1.39-5.3,3.24-5.34,3.39,2.3,3.45,5.21-1.39,5.31-3.24,5.35Zm-9.6.18c-2,0-3.71-2.51-3.79-5.71s1.54-5.82,3.55-5.86,3.73,2.51,3.8,5.71-1.54,5.82-3.56,5.86Zm62.23-7.64v0a1.59,1.59,0,0,1-.42,1.3,1.61,1.61,0,0,1-1.31.48l-38.53-3.82a3.11,3.11,0,0,1-2.78-2.63l43,4.64Zm.28,5.46a1.48,1.48,0,0,1-.43,1.29,1.58,1.58,0,0,1-1.26.5L321.93,174a3.05,3.05,0,0,1-2.77-2.56l42.92,3.81,0,.07Zm2.92-2.72c1.48-.17,2.91,1.91,3.26,4.66s-.61,5.1-2.08,5.28c-.11,0-.22-.08-.32-.09l-.88-9.83,0,0Zm8.38,18.26,1.39,12.07-4.41-.25L369,190.5l4.39.32Zm-1.8-17.33c1.33-.16,2.64,1.72,2.94,4.19s-.54,4.6-1.87,4.76-2.63-1.72-2.94-4.2.56-4.6,1.87-4.75ZM217.08,236.72c-9.05,0-16.4-10.46-16.4-23.36,0-9.32,3.85-17.34,9.38-21.09a30.77,30.77,0,0,0-2.78,13c0,12.89,7.35,23.35,16.4,23.35a12.54,12.54,0,0,0,7-2.27c-2.94,6.23-7.93,10.34-13.59,10.34ZM181.9,10l0-1.75A1.61,1.61,0,0,1,182.6,7a1.58,1.58,0,0,1,1.4-.2L194.22,10a1.54,1.54,0,0,1,1.07,1.54l0,1.74a1.64,1.64,0,0,1-.64,1.24,1.62,1.62,0,0,1-1.39.22L183,11.5A1.57,1.57,0,0,1,181.9,10ZM35,235.08c-5.06,0-9.17-7.39-9.17-16.49,0-6.59,2.16-12.26,5.27-14.9a26.65,26.65,0,0,0-1.56,9.2c0,9.11,4.11,16.49,9.17,16.49a6.09,6.09,0,0,0,3.93-1.6c-1.66,4.41-4.47,7.3-7.64,7.3ZM205.18,16a1.53,1.53,0,0,1,.66-1.24,1.56,1.56,0,0,1,1.37-.22l10.25,3.29a1.58,1.58,0,0,1,1.07,1.53l0,1.75a1.67,1.67,0,0,1-.66,1.24,1.59,1.59,0,0,1-1.4.21l-10.22-3.28a1.55,1.55,0,0,1-1.08-1.53l.05-1.75Zm23.23,7.82a1.49,1.49,0,0,1,.65-1.23,1.57,1.57,0,0,1,1.39-.22l10.23,3.28a1.56,1.56,0,0,1,1.07,1.54l0,1.75a1.54,1.54,0,0,1-.65,1.23,1.57,1.57,0,0,1-1.39.22l-10.23-3.29a1.56,1.56,0,0,1-1.09-1.53l.06-1.75Zm23.22,7.83a1.57,1.57,0,0,1,2-1.45l10.23,3.27A1.59,1.59,0,0,1,265,35.06l-.05,1.74a1.56,1.56,0,0,1-2.05,1.45L252.66,35a1.58,1.58,0,0,1-1.07-1.54l0-1.74ZM387.25,214.14s-1.76-24.46-3.09-26.08c-1.86-2.28-6-2.61-6-2.61s-.75-9.53-1.87-20.14c-16.78-4.63-80.78-11.15-82.9-11.38s-7.57,1-7.57,1l1,24.34-32.76.49C243.72,156,220,161.4,220,161.4l-35.93,4.65,10.16-7.81c-1.05-26-.64-92.7,1.82-95.38,2.69-2.94,60.63-17.86,64.79-18.59,3.11-.55,9.78.14,12.93.51l-.67-9.68A5.81,5.81,0,0,0,269.15,30L180.35.31A6,6,0,0,0,172.4,6V94.82l-5.71.44V2a1.21,1.21,0,0,0-.4-.81.79.79,0,0,0-.77-.16L12.73,61.86,157.39,16.67,10.74,76.88,156,37.15,9.1,93.09,155.68,56.71,7.43,109.23,155.14,75.68,5.72,125.28l147.41-28.9L4,141.27l149.27-26.38L2.2,157.17l150.71-22.83L.38,173.29l152.1-18.64-152.1,30L118,177.31,16.33,191c-3.73,11.64-5,34.54-5,34.54l8.81.33c0,14.75,13.35,18.25,13.35,18.25H58.61c12.71,0,15.65-20.86,15.65-20.86h5.55s1,4.56,6.52,4.56,8.14-2.93,8.14-2.93h6.2c1.31,12.38,7.86,18.91,13.69,18.91h22.17c12.4,0,14.67-28.36,14.67-28.36l26.73-2.61-.32,10.43h13.78c2.85,19.88,18.5,26.73,24.21,26.73H237c17.28,0,21.52-27.7,21.52-27.7H279s1.63,26.08,32.93,26.08,28-34.89,28-34.89l47.27.65ZM258.77,173.39a3.65,3.65,0,0,0,2.64.89l14.32-1a3.61,3.61,0,0,0,3.36-3.67L278.88,158a3.61,3.61,0,0,0-4-3.52l-14.79,1.63a3.63,3.63,0,0,0-3.22,3.83l.69,11a3.61,3.61,0,0,0,1.22,2.5ZM211,130a1.56,1.56,0,0,0-1.33,1.65l.3,4.66a1.56,1.56,0,0,0,.58,1.14,1.57,1.57,0,0,0,1.22.32l6.26-1a1.57,1.57,0,0,0,1.33-1.55v-4.67a1.62,1.62,0,0,0-.54-1.19,1.65,1.65,0,0,0-1.26-.36L211,130ZM340.3,144.53c-2.19,0-3.65,2.46-3.3,5.5s2.36,5.5,4.52,5.5,3.65-2.46,3.3-5.5-2.38-5.5-4.52-5.5ZM268.72,50.45a1.76,1.76,0,0,0-.15,1.72c3.84,8,15.35,32.91,21.12,53.05a5.06,5.06,0,0,0,3.41,3.47,421.25,421.25,0,0,0,73.76,14.84A1.25,1.25,0,0,0,368,123a1.27,1.27,0,0,0,.15-1.19C365.19,115,354.47,91,340.66,72A8.64,8.64,0,0,0,337,69.14c-9-3.73-43.63-17.53-66.7-19.43a1.74,1.74,0,0,0-1.56.74Zm-20.84,53.73a7.72,7.72,0,0,1,3.58,3.84,3.25,3.25,0,0,0,3.62,2l21.12-3.89a3.32,3.32,0,0,0,2.53-4.29c-3.22-9.79-12.3-36.92-17.92-48.59a3.3,3.3,0,0,0-3.69-1.78c-8.83,2-38.67,8.75-48.58,12.91a3.33,3.33,0,0,0-2,3c-.09,6.62-.37,27.71-.28,39.32a3.26,3.26,0,0,0,1.26,2.56,3.32,3.32,0,0,0,2.79.64c9.73-2.19,34.24-7.45,37.58-5.69Z"/></svg>