<?xml version="1.0" encoding="utf-8"?>
<!-- Generator: Adobe Illustrator 16.0.0, SVG Export Plug-In . SVG Version: 6.00 Build 0)  -->
<!DOCTYPE svg PUBLIC "-//W3C//DTD SVG 1.1//EN" "http://www.w3.org/Graphics/SVG/1.1/DTD/svg11.dtd">
<svg version="1.1" id="Layer_1" xmlns="http://www.w3.org/2000/svg" xmlns:xlink="http://www.w3.org/1999/xlink" x="0px" y="0px"
	 width="850px" height="773px" viewBox="0 0 850 773" enable-background="new 0 0 850 773" xml:space="preserve">
<path fill="#A8DDEA" d="M140.06,791.994c-27.839,0-72.039-16.354-100.559-56.139C6.777,689.968,4.278,618.208,31.434,564.632
	c23.748-46.862,63.629-66.878,71.583-70.782c91.241-43.691,159.302,40.761,206.797,2.44c50.45-40.762,0-157.433,77.378-244.082
	c3.637-4.027,9.318-10.617,18.408-17.818c71.811-56.383,170.552-29.656,187.709-25.018c24.088,6.468,79.082,22.333,122.6,77.618
	c10.341,13.18,48.859,62.118,49.655,129.363c0.795,68.831-41.814,100.805-23.861,133.146c15.225,27.215,48.632,11.351,76.241,44.667
	c30.907,37.223,19.544,94.093,18.522,99.219c-10,46.864-45.792,84.33-92.378,98.365C542.745,791.994,341.402,791.994,140.06,791.994
	z"/>
<g>
	<path fill="#EBF3FA" d="M786.347,779.336c0,0-39.008,0.072-98.502,0.218c-174.201,0.361-524.157,1.013-585.205,0.687
		c-81.916-0.435-138.588-242.165,14.588-225.746c166.368,17.793,44.684-91.066,142.678-109.111
		c106.653-19.675,128.155,55.984,204.741,25.063c104.687-42.278,161.547-27.559,197.986,3.291
		c39.959,33.852,55.277,87.123,82.106,105.748c0.602,0.435,1.206,0.832,1.807,1.193c52.138,32.55,75.731,64.049,83.438,92.006
		C847.173,734.709,786.347,779.336,786.347,779.336z"/>
	<path fill="#F8FBFF" d="M836.729,537.871l-530.591,90.223l-39.621-47.508L726.47,413.362
		C780.127,453.218,800.712,515.922,836.729,537.871z"/>
	<path fill="#F8FBFF" d="M600.204,422.767L75.15,591.963c15.468-11.274-20.102-72.403,0.778-92.688L600.204,422.767z"/>
	<circle fill="#F8FBFF" cx="664.779" cy="406.883" r="12.655"/>
	<g>
		<g>
			<rect x="431.815" y="443.539" fill="#C4D9ED" width="59.906" height="291.319"/>
			<rect x="445.271" y="443.539" fill="#D5E7F7" width="59.906" height="291.319"/>
			<rect x="445.285" y="443.462" fill="#C4D9ED" width="59.892" height="16.834"/>
			<rect x="445.285" y="479.973" fill="#C4D9ED" width="59.892" height="16.834"/>
			<rect x="445.285" y="516.482" fill="#C4D9ED" width="59.892" height="16.835"/>
			<rect x="445.285" y="552.994" fill="#C4D9ED" width="59.892" height="16.834"/>
			<rect x="445.285" y="589.504" fill="#C4D9ED" width="59.892" height="16.835"/>
			<rect x="445.285" y="626.015" fill="#C4D9ED" width="59.892" height="16.835"/>
			<rect x="445.285" y="662.526" fill="#C4D9ED" width="59.892" height="16.833"/>
			<rect x="445.285" y="699.037" fill="#C4D9ED" width="59.892" height="16.834"/>
		</g>
		<g>
			<rect x="527.582" y="484.762" fill="#C4D9ED" width="59.906" height="250.097"/>
			<rect x="541.036" y="484.762" fill="#D5E7F7" width="59.907" height="250.097"/>
			<rect x="541.052" y="484.695" fill="#C4D9ED" width="59.892" height="14.451"/>
			<rect x="541.052" y="516.039" fill="#C4D9ED" width="59.892" height="14.452"/>
			<rect x="541.052" y="547.384" fill="#C4D9ED" width="59.892" height="14.451"/>
			<rect x="541.052" y="578.728" fill="#C4D9ED" width="59.892" height="14.452"/>
			<rect x="541.052" y="610.072" fill="#C4D9ED" width="59.892" height="14.452"/>
			<rect x="541.052" y="641.416" fill="#C4D9ED" width="59.892" height="14.453"/>
			<rect x="541.052" y="672.762" fill="#C4D9ED" width="59.892" height="14.451"/>
			<rect x="541.052" y="704.105" fill="#C4D9ED" width="59.892" height="14.452"/>
		</g>
		<rect x="399.393" y="725.923" fill="#DCEAF9" width="25.087" height="36.582"/>
		<path fill="#D5E7F7" d="M407.054,676.019v101.563H141.322l-1.81-0.017l-67.817-0.638c-0.057-0.099-0.125-0.218-0.205-0.353
			c-0.112-0.194-0.244-0.426-0.396-0.69c-0.049-0.092-0.106-0.188-0.165-0.29c-0.201-0.36-0.429-0.766-0.684-1.231
			c-0.31-0.564-0.657-1.209-1.04-1.926v-0.002c-1.426-2.675-3.318-6.383-5.467-10.988c-0.707-1.512-1.436-3.123-2.192-4.827
			c-0.3-0.68-0.601-1.369-0.908-2.076v-0.004c-0.297-0.684-0.594-1.38-0.891-2.093c-0.01-0.023-0.02-0.047-0.03-0.07
			c-0.205-0.488-0.413-0.983-0.621-1.488c-0.217-0.514-0.433-1.037-0.65-1.565c-1.109-2.726-2.245-5.621-3.374-8.677
			c-0.03-0.078-0.06-0.161-0.089-0.239c0,0,0,0,0-0.004c-0.74-1.998-1.477-4.061-2.206-6.187c-0.403-1.17-0.799-2.354-1.196-3.56
			c-0.023-0.073-0.049-0.146-0.072-0.225c-0.175-0.535-0.347-1.07-0.521-1.611c-0.146-0.455-0.291-0.911-0.433-1.37
			c-0.297-0.944-0.594-1.898-0.888-2.862c-0.376-1.238-0.75-2.496-1.116-3.768c-0.495-1.727-0.98-3.482-1.453-5.27
			c-0.142-0.534-0.284-1.072-0.423-1.61c-0.416-1.615-0.825-3.249-1.221-4.903c-0.129-0.531-0.254-1.063-0.376-1.598
			c-0.08-0.33-0.156-0.66-0.231-0.99c-0.598-2.619-1.165-5.286-1.694-8.003c-0.584-2.991-1.123-6.042-1.604-9.143
			c-0.446-2.862-0.849-5.771-1.195-8.72c-0.33-2.783-0.611-5.599-0.839-8.447c-0.541-6.666-0.789-13.51-0.683-20.48
			c0.185-12.137,1.456-24.659,4.189-37.337c0.099-0.462,0.202-0.922,0.304-1.384c0.677-3.018,1.433-6.038,2.281-9.066
			c0.644-2.307,1.341-4.619,2.09-6.93c0.545-1.674,1.116-3.35,1.717-5.028c1.36-3.797,2.869-7.593,4.54-11.387h1.419v-3.149
			c9.066-19.563,22.431-38.939,41.451-57.27c0.357-0.343,0.713-0.684,1.066-1.023h1.113v38.85h34.382v-63.304h37.938v41.095h8.649
			v-49.062h37.938v91.985h47.981v53.637h17.927v13.513h41.181v-23.27h23.642v-63.228h29.205v116.72H407.054z"/>
		<rect x="179.974" y="492.871" fill="#C4D9ED" width="37.958" height="9.371"/>
		<rect x="179.974" y="510.478" fill="#C4D9ED" width="37.958" height="9.372"/>
		<rect x="179.974" y="526.318" fill="#C4D9ED" width="37.958" height="9.372"/>
		<rect x="133.394" y="526.318" fill="#C4D9ED" width="37.96" height="9.372"/>
		<rect x="133.394" y="510.478" fill="#C4D9ED" width="37.96" height="9.372"/>
		<rect x="133.394" y="494.661" fill="#C4D9ED" width="37.96" height="9.372"/>
		<rect x="133.383" y="541.677" fill="#C4D9ED" width="84.549" height="9.372"/>
		<rect x="133.383" y="557.035" fill="#C4D9ED" width="84.549" height="9.373"/>
		<rect x="348.372" y="559.306" fill="#C4D9ED" width="29.463" height="14.467"/>
		<rect x="348.372" y="580.82" fill="#C4D9ED" width="29.463" height="14.467"/>
		<rect x="348.372" y="602.335" fill="#C4D9ED" width="29.463" height="14.468"/>
		<rect x="348.372" y="624.889" fill="#C4D9ED" width="29.463" height="14.466"/>
		<rect x="348.372" y="646.741" fill="#C4D9ED" width="29.463" height="14.468"/>
		<rect x="348.372" y="668.595" fill="#C4D9ED" width="29.463" height="14.468"/>
		<rect x="348.372" y="691.459" fill="#C4D9ED" width="29.463" height="14.467"/>
		<rect x="133.383" y="572.045" fill="#C4D9ED" width="84.549" height="5.95"/>
		<rect x="337.919" y="559.306" fill="#C4D9ED" width="10.862" height="63.222"/>
		<rect x="303.148" y="622.527" fill="#C4D9ED" width="21.851" height="23.269"/>
		<path fill="#C4D9ED" d="M133.394,494.661v9.373l-0.006,37.642l-0.003,9.373v6.883h-7.531v-62.525
			c0.34-0.25,0.676-0.498,1.013-0.745H133.394z"/>
		<rect x="175.344" y="486.661" fill="#C4D9ED" width="4.63" height="49.029"/>
		<g opacity="0.8">
			<g>
				<g>
					<g>
						<rect x="251.621" y="587.874" fill="#C4D9ED" width="6.431" height="9.065"/>
						<rect x="239.594" y="587.874" fill="#C4D9ED" width="6.432" height="9.065"/>
						<rect x="227.836" y="587.874" fill="#C4D9ED" width="6.432" height="9.065"/>
						<rect x="216.688" y="587.874" fill="#C4D9ED" width="6.431" height="9.065"/>
						<rect x="205.326" y="587.874" fill="#C4D9ED" width="6.432" height="9.065"/>
					</g>
					<g>
						<rect x="193.834" y="587.874" fill="#C4D9ED" width="6.431" height="9.065"/>
						<rect x="181.807" y="587.874" fill="#C4D9ED" width="6.432" height="9.065"/>
						<rect x="170.049" y="587.874" fill="#C4D9ED" width="6.432" height="9.065"/>
						<rect x="158.902" y="587.874" fill="#C4D9ED" width="6.431" height="9.065"/>
						<rect x="147.54" y="587.874" fill="#C4D9ED" width="6.431" height="9.065"/>
					</g>
				</g>
				<g>
					<g>
						<rect x="135.699" y="587.874" fill="#C4D9ED" width="6.432" height="9.065"/>
						<rect x="123.672" y="587.874" fill="#C4D9ED" width="6.432" height="9.065"/>
						<rect x="111.915" y="587.874" fill="#C4D9ED" width="6.431" height="9.065"/>
						<rect x="100.767" y="587.874" fill="#C4D9ED" width="6.431" height="9.065"/>
						<rect x="89.405" y="587.874" fill="#C4D9ED" width="6.431" height="9.065"/>
					</g>
					<g>
						<rect x="77.912" y="587.874" fill="#C4D9ED" width="6.432" height="9.065"/>
						<rect x="65.886" y="587.874" fill="#C4D9ED" width="6.431" height="9.065"/>
						<rect x="54.128" y="587.874" fill="#C4D9ED" width="6.431" height="9.065"/>
						<path fill="#C4D9ED" d="M49.413,591.911v5.028h-1.717C48.241,595.266,48.812,593.59,49.413,591.911z"/>
					</g>
				</g>
			</g>
			<g>
				<g>
					<g>
						<rect x="251.621" y="603.871" fill="#C4D9ED" width="6.431" height="9.064"/>
						<rect x="239.594" y="603.871" fill="#C4D9ED" width="6.432" height="9.064"/>
						<rect x="227.836" y="603.871" fill="#C4D9ED" width="6.432" height="9.064"/>
						<rect x="216.688" y="603.871" fill="#C4D9ED" width="6.431" height="9.064"/>
						<rect x="205.326" y="603.871" fill="#C4D9ED" width="6.432" height="9.064"/>
					</g>
					<g>
						<rect x="193.834" y="603.871" fill="#C4D9ED" width="6.431" height="9.064"/>
						<rect x="181.807" y="603.871" fill="#C4D9ED" width="6.432" height="9.064"/>
						<rect x="170.049" y="603.871" fill="#C4D9ED" width="6.432" height="9.064"/>
						<rect x="158.902" y="603.871" fill="#C4D9ED" width="6.431" height="9.064"/>
						<rect x="147.54" y="603.871" fill="#C4D9ED" width="6.431" height="9.064"/>
					</g>
				</g>
				<g>
					<g>
						<rect x="135.699" y="603.871" fill="#C4D9ED" width="6.432" height="9.064"/>
						<rect x="123.672" y="603.871" fill="#C4D9ED" width="6.432" height="9.064"/>
						<rect x="111.915" y="603.871" fill="#C4D9ED" width="6.431" height="9.064"/>
						<rect x="100.767" y="603.871" fill="#C4D9ED" width="6.431" height="9.064"/>
						<rect x="89.405" y="603.871" fill="#C4D9ED" width="6.431" height="9.064"/>
					</g>
					<g>
						<rect x="77.912" y="603.871" fill="#C4D9ED" width="6.432" height="9.064"/>
						<rect x="65.886" y="603.871" fill="#C4D9ED" width="6.431" height="9.064"/>
						<rect x="54.128" y="603.871" fill="#C4D9ED" width="6.431" height="9.064"/>
						<path fill="#C4D9ED" d="M49.413,603.869v9.066h-6.088c0.677-3.018,1.433-6.038,2.281-9.066H49.413z"/>
					</g>
				</g>
			</g>
			<g>
				<g>
					<g>
						<rect x="251.621" y="619.623" fill="#C4D9ED" width="6.431" height="9.064"/>
						<rect x="239.594" y="619.623" fill="#C4D9ED" width="6.432" height="9.064"/>
						<rect x="227.836" y="619.623" fill="#C4D9ED" width="6.432" height="9.064"/>
						<rect x="216.688" y="619.623" fill="#C4D9ED" width="6.431" height="9.064"/>
						<rect x="205.326" y="619.623" fill="#C4D9ED" width="6.432" height="9.064"/>
					</g>
					<g>
						<rect x="193.834" y="619.623" fill="#C4D9ED" width="6.431" height="9.064"/>
						<rect x="181.807" y="619.623" fill="#C4D9ED" width="6.432" height="9.064"/>
						<rect x="170.049" y="619.623" fill="#C4D9ED" width="6.432" height="9.064"/>
						<rect x="158.902" y="619.623" fill="#C4D9ED" width="6.431" height="9.064"/>
						<rect x="147.54" y="619.623" fill="#C4D9ED" width="6.431" height="9.064"/>
					</g>
				</g>
				<g>
					<g>
						<rect x="135.699" y="619.623" fill="#C4D9ED" width="6.432" height="9.064"/>
						<rect x="123.672" y="619.623" fill="#C4D9ED" width="6.432" height="9.064"/>
						<rect x="111.915" y="619.623" fill="#C4D9ED" width="6.431" height="9.064"/>
						<rect x="100.767" y="619.623" fill="#C4D9ED" width="6.431" height="9.064"/>
						<rect x="89.405" y="619.623" fill="#C4D9ED" width="6.431" height="9.064"/>
					</g>
					<g>
						<rect x="77.912" y="619.623" fill="#C4D9ED" width="6.432" height="9.064"/>
						<rect x="65.886" y="619.623" fill="#C4D9ED" width="6.431" height="9.064"/>
						<rect x="54.128" y="619.623" fill="#C4D9ED" width="6.431" height="9.064"/>
						<rect x="42.979" y="619.623" fill="#C4D9ED" width="6.432" height="9.064"/>
					</g>
				</g>
			</g>
			<g>
				<g>
					<g>
						<g>
							<rect x="251.621" y="636.359" fill="#C4D9ED" width="6.431" height="9.064"/>
							<rect x="239.594" y="636.359" fill="#C4D9ED" width="6.432" height="9.064"/>
							<rect x="227.836" y="636.359" fill="#C4D9ED" width="6.432" height="9.064"/>
							<rect x="216.688" y="636.359" fill="#C4D9ED" width="6.431" height="9.064"/>
							<rect x="205.326" y="636.359" fill="#C4D9ED" width="6.432" height="9.064"/>
						</g>
						<g>
							<rect x="193.834" y="636.359" fill="#C4D9ED" width="6.431" height="9.064"/>
							<rect x="181.807" y="636.359" fill="#C4D9ED" width="6.432" height="9.064"/>
							<rect x="170.049" y="636.359" fill="#C4D9ED" width="6.432" height="9.064"/>
							<rect x="158.902" y="636.359" fill="#C4D9ED" width="6.431" height="9.064"/>
							<rect x="147.54" y="636.359" fill="#C4D9ED" width="6.431" height="9.064"/>
						</g>
					</g>
					<g>
						<g>
							<rect x="135.699" y="636.359" fill="#C4D9ED" width="6.432" height="9.064"/>
							<rect x="123.672" y="636.359" fill="#C4D9ED" width="6.432" height="9.064"/>
							<rect x="111.915" y="636.359" fill="#C4D9ED" width="6.431" height="9.064"/>
							<rect x="100.767" y="636.359" fill="#C4D9ED" width="6.431" height="9.064"/>
							<rect x="89.405" y="636.359" fill="#C4D9ED" width="6.431" height="9.064"/>
						</g>
						<g>
							<rect x="77.912" y="636.359" fill="#C4D9ED" width="6.432" height="9.064"/>
							<rect x="65.886" y="636.359" fill="#C4D9ED" width="6.431" height="9.064"/>
							<rect x="54.128" y="636.359" fill="#C4D9ED" width="6.431" height="9.064"/>
							<rect x="42.979" y="636.359" fill="#C4D9ED" width="6.432" height="9.064"/>
						</g>
					</g>
				</g>
				<g>
					<g>
						<g>
							<rect x="251.621" y="652.355" fill="#C4D9ED" width="6.431" height="9.064"/>
							<rect x="239.594" y="652.355" fill="#C4D9ED" width="6.432" height="9.064"/>
							<rect x="227.836" y="652.355" fill="#C4D9ED" width="6.432" height="9.064"/>
							<rect x="216.688" y="652.355" fill="#C4D9ED" width="6.431" height="9.064"/>
							<rect x="205.326" y="652.355" fill="#C4D9ED" width="6.432" height="9.064"/>
						</g>
						<g>
							<rect x="193.834" y="652.355" fill="#C4D9ED" width="6.431" height="9.064"/>
							<rect x="181.807" y="652.355" fill="#C4D9ED" width="6.432" height="9.064"/>
							<rect x="170.049" y="652.355" fill="#C4D9ED" width="6.432" height="9.064"/>
							<rect x="158.902" y="652.355" fill="#C4D9ED" width="6.431" height="9.064"/>
							<rect x="147.54" y="652.355" fill="#C4D9ED" width="6.431" height="9.064"/>
						</g>
					</g>
					<g>
						<g>
							<rect x="135.699" y="652.355" fill="#C4D9ED" width="6.432" height="9.064"/>
							<rect x="123.672" y="652.355" fill="#C4D9ED" width="6.432" height="9.064"/>
							<rect x="111.915" y="652.355" fill="#C4D9ED" width="6.431" height="9.064"/>
							<rect x="100.767" y="652.355" fill="#C4D9ED" width="6.431" height="9.064"/>
							<rect x="89.405" y="652.355" fill="#C4D9ED" width="6.431" height="9.064"/>
						</g>
						<g>
							<rect x="77.912" y="652.355" fill="#C4D9ED" width="6.432" height="9.064"/>
							<rect x="65.886" y="652.355" fill="#C4D9ED" width="6.431" height="9.064"/>
							<rect x="54.128" y="652.355" fill="#C4D9ED" width="6.431" height="9.064"/>
							<rect x="42.979" y="652.355" fill="#C4D9ED" width="6.432" height="9.064"/>
						</g>
					</g>
				</g>
				<g>
					<g>
						<g>
							<rect x="251.621" y="668.107" fill="#C4D9ED" width="6.431" height="9.064"/>
							<rect x="239.594" y="668.107" fill="#C4D9ED" width="6.432" height="9.064"/>
							<rect x="227.836" y="668.107" fill="#C4D9ED" width="6.432" height="9.064"/>
							<rect x="216.688" y="668.107" fill="#C4D9ED" width="6.431" height="9.064"/>
							<rect x="205.326" y="668.107" fill="#C4D9ED" width="6.432" height="9.064"/>
						</g>
						<g>
							<rect x="193.834" y="668.107" fill="#C4D9ED" width="6.431" height="9.064"/>
							<rect x="181.807" y="668.107" fill="#C4D9ED" width="6.432" height="9.064"/>
							<rect x="170.049" y="668.107" fill="#C4D9ED" width="6.432" height="9.064"/>
							<rect x="158.902" y="668.107" fill="#C4D9ED" width="6.431" height="9.064"/>
							<rect x="147.54" y="668.107" fill="#C4D9ED" width="6.431" height="9.064"/>
						</g>
					</g>
					<g>
						<g>
							<rect x="135.699" y="668.107" fill="#C4D9ED" width="6.432" height="9.064"/>
							<rect x="123.672" y="668.107" fill="#C4D9ED" width="6.432" height="9.064"/>
							<rect x="111.915" y="668.107" fill="#C4D9ED" width="6.431" height="9.064"/>
							<rect x="100.767" y="668.107" fill="#C4D9ED" width="6.431" height="9.064"/>
							<rect x="89.405" y="668.107" fill="#C4D9ED" width="6.431" height="9.064"/>
						</g>
						<g>
							<rect x="77.912" y="668.107" fill="#C4D9ED" width="6.432" height="9.064"/>
							<rect x="65.886" y="668.107" fill="#C4D9ED" width="6.431" height="9.064"/>
							<rect x="54.128" y="668.107" fill="#C4D9ED" width="6.431" height="9.064"/>
							<rect x="42.979" y="668.107" fill="#C4D9ED" width="6.432" height="9.064"/>
						</g>
					</g>
				</g>
			</g>
		</g>
		<rect x="154.081" y="696.508" fill="#C4D9ED" width="149.067" height="80.419"/>
		<rect x="267.115" y="736.717" fill="#C4D9ED" width="149.066" height="40.21"/>
		<path fill="#C4D9ED" d="M142.13,709.037v67.89H71.695c-0.057-0.099-0.125-0.218-0.205-0.353c-0.112-0.194-0.244-0.426-0.396-0.69
			c-0.049-0.092-0.106-0.188-0.165-0.29c-0.201-0.36-0.429-0.766-0.684-1.231c-0.31-0.564-0.657-1.209-1.04-1.926v-0.002
			c-1.426-2.675-3.318-6.383-5.467-10.988c-0.707-1.512-1.436-3.123-2.192-4.827c-0.3-0.68-0.601-1.369-0.908-2.076v-0.004
			c-0.297-0.684-0.594-1.38-0.891-2.093c-0.01-0.023-0.02-0.047-0.03-0.07c-0.205-0.488-0.413-0.983-0.621-1.488
			c-0.217-0.514-0.433-1.037-0.65-1.565c-1.109-2.726-2.245-5.621-3.374-8.677c-0.03-0.078-0.06-0.161-0.089-0.239c0,0,0,0,0-0.004
			c-0.74-1.998-1.477-4.061-2.206-6.187c-0.403-1.17-0.799-2.354-1.196-3.56c-0.023-0.073-0.049-0.146-0.072-0.225
			c-0.175-0.535-0.347-1.07-0.521-1.611c-0.146-0.455-0.291-0.911-0.433-1.37c-0.297-0.944-0.594-1.898-0.888-2.862
			c-0.376-1.238-0.75-2.496-1.116-3.768c-0.495-1.727-0.98-3.482-1.453-5.27c-0.142-0.534-0.284-1.072-0.423-1.61
			c-0.416-1.615-0.825-3.249-1.221-4.903H142.13z"/>
		<rect x="265.416" y="705.926" fill="#D5E7F7" width="27.773" height="14.894"/>
		<rect x="229.765" y="705.926" fill="#D5E7F7" width="27.773" height="14.894"/>
		<rect x="194.793" y="705.926" fill="#D5E7F7" width="27.773" height="14.894"/>
		<rect x="160.493" y="705.926" fill="#D5E7F7" width="27.774" height="14.894"/>
		<rect x="141.322" y="696.508" fill="#ADC9E0" width="14.308" height="81.111"/>
		<rect x="371.196" y="553.01" fill="#DCEAF9" width="0.775" height="6.296"/>
		<rect x="343.357" y="553.01" fill="#DCEAF9" width="0.774" height="6.296"/>
		<path fill="#D5E7F7" d="M40.354,680.584c0.346,2.948,0.75,5.857,1.195,8.72c0.481,3.101,1.02,6.151,1.604,9.143
			c0.529,2.717,1.096,5.384,1.694,8.003c0.076,0.33,0.152,0.66,0.231,0.99c0.122,0.535,0.248,1.066,0.376,1.598
			c0.396,1.654,0.806,3.288,1.221,4.903c0.139,0.538,0.281,1.076,0.423,1.61c0.472,1.787,0.958,3.543,1.453,5.27
			c0.366,1.271,0.74,2.529,1.116,3.768c0.293,0.964,0.591,1.918,0.888,2.862c0.142,0.459,0.287,0.915,0.433,1.37
			c0.175,0.541,0.347,1.076,0.521,1.611c0.023,0.079,0.049,0.151,0.072,0.225c0.396,1.205,0.793,2.39,1.196,3.56
			c0.729,2.126,1.465,4.188,2.206,6.187c0,0.004,0,0.004,0,0.004c0.029,0.078,0.059,0.161,0.089,0.239
			c1.129,3.056,2.265,5.951,3.374,8.677c0.218,0.528,0.433,1.052,0.65,1.565c0.208,0.505,0.416,1,0.621,1.488
			c0.01,0.023,0.02,0.047,0.03,0.07v-71.862H40.354z"/>
		<g>
			<path fill="#D5E7F7" d="M59.747,707.439v45.007c-0.01-0.023-0.02-0.047-0.03-0.07c-0.205-0.488-0.413-0.983-0.621-1.488
				c-0.217-0.514-0.433-1.037-0.65-1.565c-1.109-2.726-2.245-5.621-3.374-8.677c-0.03-0.078-0.06-0.161-0.089-0.239c0,0,0,0,0-0.004
				c-0.74-1.998-1.477-4.061-2.206-6.187c-0.403-1.17-0.799-2.354-1.196-3.56c-0.023-0.073-0.049-0.146-0.072-0.225
				c-0.175-0.535-0.347-1.07-0.521-1.611c-0.146-0.455-0.291-0.911-0.433-1.37c-0.297-0.944-0.594-1.898-0.888-2.862
				c-0.376-1.238-0.75-2.496-1.116-3.768c-0.495-1.727-0.98-3.482-1.453-5.27c-0.142-0.534-0.284-1.072-0.423-1.61
				c-0.416-1.615-0.825-3.249-1.221-4.903c-0.129-0.531-0.254-1.063-0.376-1.598H59.747z"/>
			<path fill="#C4D9ED" d="M59.747,698.446v22.374H48.551c-0.495-1.727-0.98-3.482-1.453-5.27c-0.142-0.534-0.284-1.072-0.423-1.61
				c-0.416-1.615-0.825-3.249-1.221-4.903c-0.129-0.531-0.254-1.063-0.376-1.598c-0.08-0.33-0.156-0.66-0.231-0.99
				c-0.598-2.619-1.165-5.286-1.694-8.003H59.747z"/>
			<g>
				<g>
					<g>
						<path fill="#C4D9ED" d="M52.777,727.45v6.766c-0.403-1.17-0.799-2.354-1.196-3.56c-0.023-0.073-0.049-0.146-0.072-0.225
							c-0.175-0.535-0.347-1.07-0.521-1.611c-0.146-0.455-0.291-0.911-0.433-1.37H52.777z"/>
					</g>
				</g>
			</g>
			<rect x="47.522" y="704.732" fill="#ADC9E0" width="4.417" height="7.643"/>
		</g>
		<g>
			<rect x="387.964" y="707.44" fill="#D5E7F7" width="102.352" height="68.834"/>
			<rect x="387.964" y="698.447" fill="#C4D9ED" width="102.352" height="22.372"/>
			<g>
				<g>
					<g>
						<rect x="478.09" y="727.449" fill="#C4D9ED" width="5.257" height="7.409"/>
						<rect x="468.26" y="727.449" fill="#C4D9ED" width="5.257" height="7.409"/>
						<rect x="458.65" y="727.449" fill="#C4D9ED" width="5.256" height="7.409"/>
						<rect x="449.539" y="727.449" fill="#C4D9ED" width="5.256" height="7.409"/>
						<rect x="440.252" y="727.449" fill="#C4D9ED" width="5.257" height="7.409"/>
					</g>
					<g>
						<rect x="430.859" y="727.449" fill="#C4D9ED" width="5.257" height="7.409"/>
						<rect x="421.029" y="727.449" fill="#C4D9ED" width="5.257" height="7.409"/>
						<rect x="411.419" y="727.449" fill="#C4D9ED" width="5.258" height="7.409"/>
						<rect x="402.308" y="727.449" fill="#C4D9ED" width="5.257" height="7.409"/>
						<rect x="393.021" y="727.449" fill="#C4D9ED" width="5.257" height="7.409"/>
					</g>
				</g>
				<g>
					<g>
						<rect x="478.09" y="740.524" fill="#C4D9ED" width="5.257" height="7.409"/>
						<rect x="468.26" y="740.524" fill="#C4D9ED" width="5.257" height="7.409"/>
						<rect x="458.65" y="740.524" fill="#C4D9ED" width="5.256" height="7.409"/>
						<rect x="449.539" y="740.524" fill="#C4D9ED" width="5.256" height="7.409"/>
						<rect x="440.252" y="740.524" fill="#C4D9ED" width="5.257" height="7.409"/>
					</g>
					<g>
						<rect x="430.859" y="740.524" fill="#C4D9ED" width="5.257" height="7.409"/>
						<rect x="421.029" y="740.524" fill="#C4D9ED" width="5.257" height="7.409"/>
						<rect x="411.419" y="740.524" fill="#C4D9ED" width="5.258" height="7.409"/>
						<rect x="402.308" y="740.524" fill="#C4D9ED" width="5.257" height="7.409"/>
						<rect x="393.021" y="740.524" fill="#C4D9ED" width="5.257" height="7.409"/>
					</g>
				</g>
				<g>
					<g>
						<rect x="478.09" y="753.399" fill="#C4D9ED" width="5.257" height="7.409"/>
						<rect x="468.26" y="753.399" fill="#C4D9ED" width="5.257" height="7.409"/>
						<rect x="458.65" y="753.399" fill="#C4D9ED" width="5.256" height="7.409"/>
						<rect x="449.539" y="753.399" fill="#C4D9ED" width="5.256" height="7.409"/>
						<rect x="440.252" y="753.399" fill="#C4D9ED" width="5.257" height="7.409"/>
					</g>
					<g>
						<rect x="430.859" y="753.399" fill="#C4D9ED" width="5.257" height="7.409"/>
						<rect x="421.029" y="753.399" fill="#C4D9ED" width="5.257" height="7.409"/>
						<rect x="411.419" y="753.399" fill="#C4D9ED" width="5.258" height="7.409"/>
						<rect x="402.308" y="753.399" fill="#C4D9ED" width="5.257" height="7.409"/>
						<rect x="393.021" y="753.399" fill="#C4D9ED" width="5.257" height="7.409"/>
					</g>
				</g>
			</g>
			<rect x="478.09" y="704.732" fill="#ADC9E0" width="4.417" height="7.643"/>
			<rect x="434.236" y="704.732" fill="#ADC9E0" width="4.417" height="7.643"/>
			<rect x="399.351" y="704.732" fill="#ADC9E0" width="4.418" height="7.643"/>
		</g>
		<g>
			<rect x="496.743" y="707.44" fill="#D5E7F7" width="102.352" height="68.834"/>
			<rect x="496.743" y="698.447" fill="#C4D9ED" width="102.352" height="22.372"/>
			<g>
				<g>
					<g>
						<rect x="586.869" y="727.449" fill="#C4D9ED" width="5.257" height="7.409"/>
						<rect x="577.039" y="727.449" fill="#C4D9ED" width="5.258" height="7.409"/>
						<rect x="567.43" y="727.449" fill="#C4D9ED" width="5.257" height="7.409"/>
						<rect x="558.318" y="727.449" fill="#C4D9ED" width="5.257" height="7.409"/>
						<rect x="549.031" y="727.449" fill="#C4D9ED" width="5.257" height="7.409"/>
					</g>
					<g>
						<rect x="539.639" y="727.449" fill="#C4D9ED" width="5.257" height="7.409"/>
						<rect x="529.81" y="727.449" fill="#C4D9ED" width="5.256" height="7.409"/>
						<rect x="520.199" y="727.449" fill="#C4D9ED" width="5.257" height="7.409"/>
						<rect x="511.088" y="727.449" fill="#C4D9ED" width="5.256" height="7.409"/>
						<rect x="501.802" y="727.449" fill="#C4D9ED" width="5.256" height="7.409"/>
					</g>
				</g>
				<g>
					<g>
						<rect x="586.869" y="740.524" fill="#C4D9ED" width="5.257" height="7.409"/>
						<rect x="577.039" y="740.524" fill="#C4D9ED" width="5.258" height="7.409"/>
						<rect x="567.43" y="740.524" fill="#C4D9ED" width="5.257" height="7.409"/>
						<rect x="558.318" y="740.524" fill="#C4D9ED" width="5.257" height="7.409"/>
						<rect x="549.031" y="740.524" fill="#C4D9ED" width="5.257" height="7.409"/>
					</g>
					<g>
						<rect x="539.639" y="740.524" fill="#C4D9ED" width="5.257" height="7.409"/>
						<rect x="529.81" y="740.524" fill="#C4D9ED" width="5.256" height="7.409"/>
						<rect x="520.199" y="740.524" fill="#C4D9ED" width="5.257" height="7.409"/>
						<rect x="511.088" y="740.524" fill="#C4D9ED" width="5.256" height="7.409"/>
						<rect x="501.802" y="740.524" fill="#C4D9ED" width="5.256" height="7.409"/>
					</g>
				</g>
				<g>
					<g>
						<rect x="586.869" y="753.399" fill="#C4D9ED" width="5.257" height="7.409"/>
						<rect x="577.039" y="753.399" fill="#C4D9ED" width="5.258" height="7.409"/>
						<rect x="567.43" y="753.399" fill="#C4D9ED" width="5.257" height="7.409"/>
						<rect x="558.318" y="753.399" fill="#C4D9ED" width="5.257" height="7.409"/>
						<rect x="549.031" y="753.399" fill="#C4D9ED" width="5.257" height="7.409"/>
					</g>
					<g>
						<rect x="539.639" y="753.399" fill="#C4D9ED" width="5.257" height="7.409"/>
						<rect x="529.81" y="753.399" fill="#C4D9ED" width="5.256" height="7.409"/>
						<rect x="520.199" y="753.399" fill="#C4D9ED" width="5.257" height="7.409"/>
						<rect x="511.088" y="753.399" fill="#C4D9ED" width="5.256" height="7.409"/>
						<rect x="501.802" y="753.399" fill="#C4D9ED" width="5.256" height="7.409"/>
					</g>
				</g>
			</g>
			<rect x="586.869" y="704.732" fill="#ADC9E0" width="4.418" height="7.643"/>
			<rect x="543.016" y="704.732" fill="#ADC9E0" width="4.417" height="7.643"/>
			<rect x="508.132" y="704.732" fill="#ADC9E0" width="4.416" height="7.643"/>
		</g>
		<g>
			<rect x="710.975" y="707.44" fill="#D5E7F7" width="102.352" height="68.834"/>
			<rect x="710.975" y="698.447" fill="#C4D9ED" width="102.352" height="22.372"/>
			<g>
				<g>
					<g>
						<rect x="801.101" y="727.449" fill="#C4D9ED" width="5.256" height="7.409"/>
						<rect x="791.271" y="727.449" fill="#C4D9ED" width="5.257" height="7.409"/>
						<rect x="781.661" y="727.449" fill="#C4D9ED" width="5.257" height="7.409"/>
						<rect x="772.549" y="727.449" fill="#C4D9ED" width="5.257" height="7.409"/>
						<rect x="763.263" y="727.449" fill="#C4D9ED" width="5.258" height="7.409"/>
					</g>
					<g>
						<rect x="753.87" y="727.449" fill="#C4D9ED" width="5.257" height="7.409"/>
						<rect x="744.04" y="727.449" fill="#C4D9ED" width="5.257" height="7.409"/>
						<rect x="734.431" y="727.449" fill="#C4D9ED" width="5.257" height="7.409"/>
						<rect x="725.319" y="727.449" fill="#C4D9ED" width="5.256" height="7.409"/>
						<rect x="716.033" y="727.449" fill="#C4D9ED" width="5.256" height="7.409"/>
					</g>
				</g>
				<g>
					<g>
						<rect x="801.101" y="740.524" fill="#C4D9ED" width="5.256" height="7.409"/>
						<rect x="791.271" y="740.524" fill="#C4D9ED" width="5.257" height="7.409"/>
						<rect x="781.661" y="740.524" fill="#C4D9ED" width="5.257" height="7.409"/>
						<rect x="772.549" y="740.524" fill="#C4D9ED" width="5.257" height="7.409"/>
						<rect x="763.263" y="740.524" fill="#C4D9ED" width="5.258" height="7.409"/>
					</g>
					<g>
						<rect x="753.87" y="740.524" fill="#C4D9ED" width="5.257" height="7.409"/>
						<rect x="744.04" y="740.524" fill="#C4D9ED" width="5.257" height="7.409"/>
						<rect x="734.431" y="740.524" fill="#C4D9ED" width="5.257" height="7.409"/>
						<rect x="725.319" y="740.524" fill="#C4D9ED" width="5.256" height="7.409"/>
						<rect x="716.033" y="740.524" fill="#C4D9ED" width="5.256" height="7.409"/>
					</g>
				</g>
				<g>
					<g>
						<rect x="801.101" y="753.399" fill="#C4D9ED" width="5.256" height="7.409"/>
						<rect x="791.271" y="753.399" fill="#C4D9ED" width="5.257" height="7.409"/>
						<rect x="781.661" y="753.399" fill="#C4D9ED" width="5.257" height="7.409"/>
						<rect x="772.549" y="753.399" fill="#C4D9ED" width="5.257" height="7.409"/>
						<rect x="763.263" y="753.399" fill="#C4D9ED" width="5.258" height="7.409"/>
					</g>
					<g>
						<rect x="753.87" y="753.399" fill="#C4D9ED" width="5.257" height="7.409"/>
						<rect x="744.04" y="753.399" fill="#C4D9ED" width="5.257" height="7.409"/>
						<rect x="734.431" y="753.399" fill="#C4D9ED" width="5.257" height="7.409"/>
						<rect x="725.319" y="753.399" fill="#C4D9ED" width="5.256" height="7.409"/>
						<rect x="716.033" y="753.399" fill="#C4D9ED" width="5.256" height="7.409"/>
					</g>
				</g>
			</g>
			<rect x="801.101" y="704.732" fill="#ADC9E0" width="4.417" height="7.643"/>
			<rect x="757.247" y="704.732" fill="#ADC9E0" width="4.418" height="7.643"/>
			<rect x="722.362" y="704.732" fill="#ADC9E0" width="4.417" height="7.643"/>
		</g>
	</g>
	<path fill="#ABC6DD" d="M769.237,753.279c0-0.409,0-0.817-0.012-1.228c0-2.5-0.011-5.048-0.022-7.163
		c-0.024-3.399-1.192-6.509-2.502-8.927c-1.705-3.119-3.633-5.094-3.633-5.094l-4.009-3.238l-13.46-10.829l-0.077-0.167
		c0.312-0.318,0.585-0.672,0.785-1.073c0.292-0.585,0.456-1.25,0.456-1.939v-7.759c0-2.384-1.952-4.348-4.347-4.348h-1.391
		c-0.81,0-1.563,0.232-2.215,0.624l-9.24-19.957c-0.562-2.661-1.312-5.092-2.13-7.254c-2.522-6.652-9.677-11.182-17.809-11.182
		h-0.271h-47.58h-21.74v0.003h-0.004v0.116H548.3v98.784h11.411c1.009,5.106,4.099,8.852,7.799,8.852c0,0,4.514,0,5.141,0
		c3.7,0,6.791-3.745,7.8-8.852h23.797c1.009,5.106,4.099,8.852,7.799,8.852c0,0,4.513,0,5.141,0c3.7,0,6.79-3.745,7.798-8.852
		h15.053h3.004h7.852h27.53c-0.176-1.016-0.257-2.066-0.257-3.154c0-0.079,0.021-0.147,0.022-0.227l0.234,3.381h2.449
		c1.009,5.106,4.099,8.852,7.8,8.852c0,0,4.513,0,5.141,0c3.7,0,6.791-3.745,7.798-8.852h8.385h29.983
		c1.009,5.106,4.099,8.852,7.799,8.852c0,0,4.514,0,5.141,0c3.722,0,6.826-3.786,7.817-8.937
		C765.498,762.13,769.249,758.165,769.237,753.279z"/>
	<g>
		<g>
			<path fill="#A8302D" d="M632.619,596.561v20.449c0,1.818-0.433,3.573-1.202,5.113c-1.878,3.758-5.79,6.344-10.256,6.344h-3.665
				c-6.283,0-11.457-5.143-11.457-11.457v-20.449c0-2.156,0.616-4.158,1.663-5.884c0-0.03,0-0.03,0-0.03
				c2.032-3.326,5.667-5.544,9.794-5.544h3.665C627.475,585.103,632.619,590.277,632.619,596.561z"/>
			<path opacity="0.3" fill="#A8302D" d="M631.417,622.123c-1.878,3.758-5.79,6.344-10.256,6.344h-3.665
				c-6.283,0-11.457-5.143-11.457-11.457v-20.449c0-2.156,0.616-4.158,1.663-5.884C607.918,591.94,612.784,619.998,631.417,622.123z
				"/>
		</g>
		<polygon fill="#661717" points="450.98,746.242 507.616,746.242 507.616,689.082 448.533,689.082 		"/>
		<path fill="#C94C43" d="M629.563,625.416l-278.242,6.86V485.552h182.713c17.417,0,33.369,9.751,41.312,25.252l11.957,23.337
			L629.563,625.416z"/>
		<g>
			<path fill="#631818" d="M471.496,736.942c0,15.518,8.004,32.63,8.004,32.63s11.896,0,13.55,0
				c11.903,0,21.554-14.608,21.554-32.63s-23.199-32.63-35.104-32.63C467.597,704.313,471.496,718.921,471.496,736.942z"/>
			<ellipse fill="#822121" cx="479.501" cy="736.942" rx="21.554" ry="32.63"/>
			<ellipse fill="#661717" cx="479.772" cy="736.942" rx="16.235" ry="24.579"/>
		</g>
		<g>
			<path fill="#631818" d="M627.288,736.942c0,15.518,8.004,32.63,8.004,32.63s11.896,0,13.549,0
				c11.904,0,21.554-14.608,21.554-32.63s-23.199-32.63-35.103-32.63S627.288,718.921,627.288,736.942z"/>
			<ellipse fill="#822121" cx="635.292" cy="736.942" rx="21.553" ry="32.63"/>
			<ellipse fill="#661717" cx="635.564" cy="736.942" rx="16.235" ry="24.579"/>
		</g>
		<g>
			<path fill="#631818" d="M269.528,736.942c0,15.518,8.004,32.63,8.004,32.63s11.896,0,13.548,0
				c11.904,0,21.553-14.608,21.553-32.63s-23.199-32.63-35.102-32.63C265.628,704.313,269.528,718.921,269.528,736.942z"/>
			<ellipse fill="#822121" cx="277.531" cy="736.942" rx="21.553" ry="32.63"/>
			<ellipse fill="#661717" cx="277.803" cy="736.942" rx="16.235" ry="24.579"/>
		</g>
		<path fill="#C94C43" d="M691.855,721.542c0.03,13.644-11.026,24.7-24.639,24.7H507.616c0.462-2.679,0.708-5.451,0.708-8.315
			c0-21.098-12.658-38.222-28.242-38.222c-15.615,0-28.273,17.124-28.273,38.222c0,2.864,0.215,5.637,0.678,8.315h-93.259
			c0,0-3.758-41.64-3.295-62.521c0.369-18.172,0.369-53.775-0.709-62.459c0-1.295,89.933-1.449,112.632-1.541
			c3.08-0.031,4.928-0.031,5.112-0.031l0.308,0.216l0.339,0.247c4.188,2.926,27.657,19.372,42.226,29.012
			c12.843,8.471,107.643,11.92,144.816,12.967c9.238,0.246,14.937,0.339,14.937,0.339s5.082,5.205,9.579,13.428
			c3.449,6.376,6.529,14.567,6.591,23.53c0.03,5.575,0.062,12.289,0.062,18.88C691.855,719.386,691.855,720.465,691.855,721.542z"/>
		<path fill="#A2C2DD" d="M607.128,619.689H482.084c-2.896,0-5.513-1.693-6.714-4.311l-30.954-68.867
			c-1.016-2.248,0.648-4.805,3.111-4.805h131.911c2.896,0,5.545,1.726,6.715,4.404l22.175,50.664l5.544,12.658
			C615.966,614.27,612.425,619.689,607.128,619.689z"/>
		<path fill="#A8302D" d="M548.887,718.308c-0.031,2.157-0.123,4.188-0.247,6.007c-0.893,11.979-12.935,21.928-12.935,21.928
			h-28.089c0.462-2.679,0.708-5.451,0.708-8.315c0-7.176-1.479-13.89-4.004-19.619c-4.959-11.148-13.951-18.603-24.238-18.603
			c-10.318,0-19.311,7.454-24.27,18.603c-2.525,5.729-4.004,12.443-4.004,19.619c0,2.864,0.215,5.637,0.678,8.315H351.312V485.561
			h81.217v51.742c0,0,24.361,57.225,35.326,82.418c2.709,6.283,4.619,10.564,5.112,11.488c2.433,4.65,59.041,33.293,68.404,41.732
			C546.577,677.622,549.164,701.954,548.887,718.308z"/>
		<path fill="#A2C2DD" d="M433.438,554.096l26.635,65.605H414.37c0,0-9.375-1.57-10.577-20.729
			c-1.283-20.454-1.28-55.751-1.28-55.751l20.06-0.097C430.219,544.279,431.416,548.479,433.438,554.096z"/>
		<polygon fill="#C94C43" points="675.593,662.47 527.389,662.47 473.275,619.905 472.968,619.689 622.465,619.689 665.029,653.938 
					"/>
		<path fill="#C4D9ED" d="M685.172,675.897c-0.862,1.418-1.972,2.341-3.172,2.557l-20.79,3.851c-1.756,0.338-3.11-2.711-2.648-5.852
			l2.032-13.983l0.063-0.339l0.4-2.865c0.369-2.463,1.447-4.342,2.771-4.865l1.201-0.463l10.563,8.532
			C675.593,662.47,680.675,667.675,685.172,675.897z"/>
		<path fill="#A8302D" d="M546.577,687.479l-13.397-1.324c-4.682-0.462-8.471-3.974-9.302-8.594l-3.08-16.939
			c-0.062-0.276-0.093-0.523-0.062-0.8c9.548,5.481,17.586,10.379,20.636,13.12C543.59,674.943,545.345,680.488,546.577,687.479z"/>
		<path fill="#C4D9ED" d="M572.017,690.004l-25.409-2.525h-0.03l-13.397-1.324c-4.682-0.462-8.471-3.974-9.302-8.594l-3.08-16.939
			c-0.062-0.276-0.093-0.523-0.062-0.8v-0.031c-0.154-3.573,3.111-6.468,6.775-5.729l39.577,8.038
			c2.526,0.524,4.527,2.402,5.205,4.867l4.651,17.186C577.807,687.293,575.25,690.343,572.017,690.004z"/>
		<path fill="#C94C43" d="M587.313,534.139H432.916c0,0-0.596-9.879-4.471-21.162c-3.449-9.965-9.41-21.078-19.842-27.422h126.165
			c20.566,0,38.79,10.986,46.029,27.422c0.341,0.682,0.639,1.361,0.895,2.043C583.863,520.726,585.822,527.112,587.313,534.139z"/>
		<path fill="#A2C2DD" d="M546.607,687.479l-13.428-1.324c-4.682-0.462-8.471-3.974-9.302-8.594l-3.08-16.939
			c-0.062-0.276-0.093-0.555-0.062-0.831c9.548,5.513,17.586,10.41,20.636,13.151C543.59,674.943,545.345,680.488,546.607,687.479z"
			/>
		<path opacity="0.3" fill="#8E2323" d="M691.855,721.542c0.03,13.644-11.55,24.7-25.841,24.7H507.616
			c0.462-2.679,0.708-5.451,0.708-8.315c0-7.176-1.479-13.89-4.004-19.619h187.504C691.855,719.386,691.855,720.465,691.855,721.542
			z"/>
		<path opacity="0.3" fill="#8E2323" d="M451.809,737.927c0,2.864,0.215,5.637,0.678,8.315H351.312v-27.935h104.5
			C453.287,724.037,451.809,730.751,451.809,737.927z"/>
		<path opacity="0.3" fill="#8E2323" d="M587.511,663.674h60.605c1.936,0,3.416,2.61,3.121,5.505l-2.151,21.062
			c-0.316,3.099-2.08,5.385-4.152,5.385h-49.931c-3.2,0-6.026-3.168-6.957-7.802l-3.596-17.907
			C583.826,666.811,585.363,663.674,587.511,663.674z"/>
		<path fill="#C4D9ED" d="M608.328,596.775c-71.484-3.664-119.838-41.916-134.438-55.068h105.548c2.896,0,5.545,1.726,6.715,4.404
			L608.328,596.775z"/>
		<rect x="109.52" y="485.552" fill="#8E2525" width="270.385" height="260.709"/>
		<path fill="#631818" d="M446.518,586.015c0,0,2.313,26.515-10.777,33.776h24.453L446.518,586.015z"/>
		<path fill="#631818" d="M450.109,603.76c0,0-5.521-3.93-5.996-7.188v18.544h7.227L450.109,603.76z"/>
		<g>
			<path fill="#C94C43" d="M444.109,596.561v20.449c0,1.818-0.432,3.573-1.202,5.113c-1.878,3.758-5.789,6.344-10.255,6.344h-3.666
				c-6.283,0-11.457-5.143-11.457-11.457v-20.449c0-2.156,0.616-4.158,1.663-5.884c0-0.03,0-0.03,0-0.03
				c2.032-3.326,5.667-5.544,9.794-5.544h3.666C438.966,585.103,444.109,590.277,444.109,596.561z"/>
			<path opacity="0.3" fill="#8E2323" d="M442.907,622.123c-1.878,3.758-5.789,6.344-10.255,6.344h-3.666
				c-6.283,0-11.457-5.143-11.457-11.457v-20.449c0-2.156,0.616-4.158,1.663-5.884C419.408,591.94,424.274,619.998,442.907,622.123z
				"/>
		</g>
		<path fill="#661717" d="M197.831,746.261H131.32c-1.405-6.004-5.635-48.754,31.638-48.755
			C196.83,697.506,199.321,736.509,197.831,746.261z"/>
		<g>
			<path fill="#631818" d="M152.141,736.942c0,15.518,8.004,32.63,8.004,32.63s11.896,0,13.549,0
				c11.903,0,21.554-14.608,21.554-32.63s-23.199-32.63-35.103-32.63C148.241,704.313,152.141,718.921,152.141,736.942z"/>
			<ellipse fill="#822121" cx="160.145" cy="736.942" rx="21.553" ry="32.63"/>
			<ellipse fill="#661717" cx="160.416" cy="736.942" rx="16.235" ry="24.579"/>
		</g>
		<path opacity="0.3" fill="#8E2323" d="M587.313,534.139H432.916c0,0-0.596-9.879-4.471-21.162h152.353
			c0.341,0.682,0.639,1.361,0.895,2.043C583.863,520.726,585.822,527.112,587.313,534.139z"/>
	</g>
	<path fill="#F99746" d="M455.813,324.295c-27.893,0-50.505,22.611-50.505,50.505c0,27.893,50.505,89.905,50.505,89.905
		s50.505-62.013,50.505-89.905C506.317,346.906,483.705,324.295,455.813,324.295z M455.813,397.894
		c-13.038,0-23.607-10.569-23.607-23.607c0-13.038,10.569-23.607,23.607-23.607c13.039,0,23.607,10.569,23.607,23.607
		C479.42,387.324,468.852,397.894,455.813,397.894z"/>
	<g>
		<path fill="#699FF0" d="M355.224,644.225c-0.279,0-0.556-0.119-0.748-0.352l-1.209-1.465c-0.341-0.412-0.282-1.023,0.131-1.365
			c0.412-0.341,1.024-0.281,1.364,0.131l1.208,1.463c0.342,0.412,0.284,1.023-0.129,1.365
			C355.66,644.151,355.441,644.225,355.224,644.225z M352.37,640.764c-0.28,0-0.559-0.121-0.75-0.354
			c-0.541-0.66-1.088-1.328-1.641-2.006c-0.339-0.415-0.277-1.026,0.139-1.364c0.415-0.339,1.025-0.276,1.364,0.138
			c0.552,0.677,1.097,1.344,1.637,2.001c0.34,0.414,0.28,1.024-0.134,1.364C352.805,640.691,352.587,640.764,352.37,640.764z
			 M349.1,636.754c-0.283,0-0.563-0.123-0.754-0.361c-0.538-0.664-1.08-1.337-1.626-2.018c-0.334-0.418-0.267-1.029,0.15-1.363
			c0.418-0.336,1.028-0.268,1.363,0.15c0.544,0.679,1.084,1.35,1.621,2.012c0.336,0.416,0.272,1.027-0.144,1.363
			C349.53,636.684,349.315,636.754,349.1,636.754z M345.865,632.715c-0.287,0-0.57-0.126-0.761-0.367
			c-0.532-0.672-1.067-1.352-1.604-2.037c-0.331-0.422-0.257-1.031,0.165-1.361s1.031-0.256,1.361,0.166
			c0.535,0.683,1.069,1.358,1.599,2.028c0.333,0.419,0.262,1.029-0.158,1.362C346.288,632.646,346.076,632.715,345.865,632.715z
			 M342.674,628.641c-0.291,0-0.576-0.129-0.768-0.376c-0.525-0.679-1.051-1.365-1.58-2.057c-0.325-0.426-0.243-1.034,0.183-1.358
			c0.426-0.326,1.034-0.244,1.359,0.182c0.526,0.688,1.05,1.371,1.573,2.047c0.328,0.424,0.25,1.033-0.174,1.359
			C343.09,628.575,342.881,628.641,342.674,628.641z M339.535,624.527c-0.294,0-0.585-0.134-0.775-0.388
			c-0.517-0.687-1.034-1.38-1.552-2.079c-0.318-0.431-0.228-1.038,0.203-1.356c0.431-0.319,1.038-0.228,1.356,0.202
			c0.515,0.695,1.029,1.385,1.542,2.068c0.322,0.428,0.236,1.036-0.193,1.357C339.943,624.464,339.738,624.527,339.535,624.527z
			 M336.458,620.369c-0.299,0-0.595-0.139-0.785-0.4c-0.506-0.695-1.013-1.396-1.518-2.104c-0.312-0.437-0.21-1.042,0.225-1.354
			c0.436-0.312,1.042-0.211,1.353,0.225c0.502,0.702,1.005,1.4,1.509,2.093c0.315,0.433,0.22,1.039-0.214,1.354
			C336.855,620.309,336.655,620.369,336.458,620.369z M333.449,616.158c-0.306,0-0.606-0.143-0.795-0.412
			c-0.495-0.705-0.989-1.416-1.481-2.131c-0.304-0.441-0.192-1.045,0.249-1.35c0.442-0.303,1.045-0.191,1.35,0.249
			c0.488,0.711,0.979,1.417,1.471,2.118c0.308,0.438,0.202,1.042-0.236,1.35C333.835,616.102,333.641,616.158,333.449,616.158z
			 M330.516,611.897c-0.312,0-0.618-0.15-0.806-0.429c-0.481-0.715-0.962-1.436-1.44-2.16c-0.294-0.447-0.171-1.049,0.276-1.343
			c0.447-0.296,1.048-0.173,1.343,0.275c0.474,0.72,0.952,1.435,1.43,2.146c0.299,0.443,0.182,1.046-0.262,1.345
			C330.891,611.844,330.702,611.897,330.516,611.897z M327.667,607.578c-0.318,0-0.631-0.157-0.816-0.445
			c-0.468-0.725-0.933-1.455-1.396-2.189c-0.285-0.453-0.149-1.053,0.304-1.338c0.454-0.285,1.052-0.148,1.338,0.305
			c0.458,0.729,0.92,1.453,1.384,2.173c0.29,0.45,0.16,1.05-0.29,1.34C328.029,607.527,327.848,607.578,327.667,607.578z
			 M324.913,603.199c-0.327,0-0.645-0.166-0.828-0.464c-0.452-0.737-0.9-1.478-1.345-2.223c-0.275-0.46-0.125-1.055,0.335-1.329
			c0.46-0.274,1.055-0.125,1.33,0.335c0.441,0.737,0.886,1.473,1.333,2.203c0.281,0.456,0.137,1.054-0.319,1.333
			C325.261,603.152,325.085,603.199,324.913,603.199z M322.26,598.756c-0.334,0-0.659-0.172-0.839-0.482
			c-0.434-0.748-0.865-1.5-1.291-2.256c-0.263-0.467-0.098-1.059,0.369-1.32c0.467-0.264,1.058-0.098,1.32,0.368
			c0.423,0.749,0.849,1.493,1.279,2.234c0.27,0.463,0.112,1.056-0.352,1.325C322.593,598.715,322.426,598.756,322.26,598.756z
			 M319.721,594.25c-0.344,0-0.676-0.183-0.853-0.505c-0.416-0.763-0.827-1.528-1.234-2.297c-0.25-0.474-0.069-1.061,0.405-1.312
			c0.472-0.25,1.06-0.069,1.311,0.404c0.402,0.762,0.81,1.52,1.222,2.274c0.257,0.471,0.083,1.06-0.387,1.315
			C320.037,594.212,319.878,594.25,319.721,594.25z M317.298,589.664c-0.353,0-0.694-0.193-0.865-0.529
			c-0.395-0.773-0.783-1.551-1.167-2.33c-0.236-0.482-0.038-1.063,0.443-1.299c0.48-0.236,1.062-0.038,1.297,0.442
			c0.38,0.772,0.765,1.54,1.155,2.305c0.243,0.478,0.054,1.062-0.423,1.306C317.597,589.63,317.446,589.664,317.298,589.664z
			 M315.012,585.012c-0.364,0-0.711-0.205-0.877-0.556c-0.371-0.785-0.735-1.573-1.093-2.364c-0.222-0.488-0.005-1.063,0.483-1.284
			c0.488-0.22,1.062-0.004,1.284,0.483c0.353,0.783,0.713,1.562,1.08,2.337c0.229,0.484,0.021,1.063-0.463,1.291
			C315.292,584.982,315.151,585.012,315.012,585.012z M312.877,580.294c-0.375,0-0.732-0.219-0.89-0.585
			c-0.345-0.797-0.683-1.597-1.014-2.4c-0.204-0.494,0.031-1.062,0.527-1.266c0.495-0.205,1.062,0.031,1.266,0.527
			c0.327,0.793,0.661,1.582,1.001,2.368c0.213,0.492-0.013,1.063-0.504,1.275C313.137,580.268,313.005,580.294,312.877,580.294z
			 M310.904,575.508c-0.388,0-0.753-0.234-0.904-0.617c-0.316-0.809-0.625-1.619-0.927-2.434c-0.186-0.502,0.07-1.061,0.573-1.246
			c0.502-0.187,1.06,0.07,1.246,0.572c0.297,0.803,0.602,1.604,0.914,2.401c0.196,0.499-0.05,1.062-0.548,1.257
			C311.141,575.486,311.022,575.508,310.904,575.508z M309.108,570.656c-0.401,0-0.776-0.25-0.916-0.65
			c-0.285-0.821-0.563-1.645-0.832-2.47c-0.166-0.509,0.112-1.057,0.621-1.223c0.509-0.165,1.057,0.111,1.223,0.622
			c0.265,0.813,0.539,1.625,0.82,2.432c0.176,0.506-0.091,1.059-0.597,1.235C309.322,570.639,309.214,570.656,309.108,570.656z
			 M307.505,565.739c-0.417,0-0.801-0.27-0.928-0.688c-0.252-0.829-0.498-1.672-0.73-2.502c-0.145-0.516,0.156-1.051,0.672-1.195
			c0.516-0.145,1.051,0.156,1.195,0.672c0.229,0.817,0.471,1.646,0.719,2.462c0.156,0.512-0.134,1.055-0.646,1.21
			C307.693,565.726,307.599,565.739,307.505,565.739z M306.11,560.76c-0.433,0-0.826-0.291-0.939-0.729
			c-0.217-0.846-0.425-1.698-0.619-2.534c-0.121-0.522,0.203-1.044,0.725-1.164c0.523-0.122,1.043,0.203,1.164,0.726
			c0.191,0.821,0.396,1.66,0.609,2.49c0.133,0.52-0.179,1.047-0.699,1.18C306.271,560.75,306.19,560.76,306.11,560.76z
			 M304.94,555.722c-0.45,0-0.854-0.315-0.949-0.772c-0.177-0.854-0.345-1.716-0.499-2.563c-0.096-0.526,0.253-1.031,0.779-1.128
			c0.527-0.097,1.032,0.254,1.128,0.78c0.151,0.83,0.316,1.677,0.49,2.516c0.109,0.524-0.228,1.037-0.752,1.146
			C305.071,555.715,305.005,555.722,304.94,555.722z M304.012,550.633c-0.47,0-0.882-0.342-0.957-0.82
			c-0.135-0.859-0.26-1.729-0.373-2.586c-0.069-0.531,0.306-1.018,0.836-1.088c0.532-0.066,1.018,0.307,1.087,0.837
			c0.109,0.841,0.232,1.694,0.365,2.536c0.082,0.529-0.279,1.025-0.809,1.109C304.112,550.629,304.062,550.633,304.012,550.633z
			 M303.342,545.501c-0.49,0-0.912-0.371-0.963-0.87c-0.09-0.867-0.169-1.744-0.235-2.604c-0.041-0.534,0.359-1,0.893-1.041
			c0.53-0.048,1,0.358,1.041,0.893c0.065,0.843,0.143,1.702,0.231,2.552c0.055,0.533-0.333,1.011-0.865,1.066
			C303.409,545.499,303.376,545.501,303.342,545.501z M302.948,540.338c-0.514,0-0.943-0.404-0.968-0.924
			c-0.043-0.871-0.073-1.751-0.091-2.616c-0.011-0.536,0.415-0.979,0.95-0.989c0.534-0.025,0.978,0.414,0.989,0.949
			c0.018,0.847,0.047,1.709,0.089,2.563c0.026,0.535-0.386,0.99-0.921,1.016C302.979,540.336,302.963,540.338,302.948,540.338z
			 M302.842,535.156c-0.003,0-0.005,0-0.008,0c-0.536-0.005-0.966-0.442-0.962-0.979c0.007-0.873,0.027-1.752,0.059-2.614
			c0.02-0.535,0.465-0.947,1.005-0.933c0.535,0.02,0.953,0.47,0.933,1.005c-0.031,0.844-0.05,1.704-0.057,2.558
			C303.808,534.727,303.374,535.156,302.842,535.156z M303.036,529.982c-0.022,0-0.043-0.001-0.065-0.002
			c-0.535-0.036-0.939-0.498-0.903-1.032c0.058-0.87,0.13-1.749,0.214-2.612c0.051-0.533,0.526-0.924,1.059-0.871
			c0.533,0.051,0.923,0.525,0.872,1.059c-0.082,0.844-0.153,1.703-0.209,2.554C303.968,529.59,303.542,529.982,303.036,529.982z
			 M303.535,524.83c-0.042,0-0.083-0.002-0.124-0.008c-0.531-0.067-0.907-0.553-0.839-1.084c0.109-0.861,0.234-1.732,0.369-2.588
			c0.084-0.529,0.58-0.889,1.109-0.807c0.529,0.084,0.891,0.58,0.807,1.109c-0.132,0.836-0.254,1.688-0.361,2.529
			C304.433,524.473,304.016,524.83,303.535,524.83z M304.342,519.725c-0.06,0-0.121-0.006-0.182-0.018
			c-0.526-0.1-0.872-0.606-0.772-1.133c0.162-0.852,0.338-1.715,0.525-2.561c0.116-0.524,0.632-0.855,1.156-0.738
			c0.523,0.115,0.854,0.633,0.738,1.155c-0.183,0.829-0.355,1.671-0.513,2.505C305.206,519.4,304.799,519.725,304.342,519.725z
			 M305.457,514.677c-0.078,0-0.158-0.011-0.238-0.03c-0.52-0.131-0.834-0.658-0.703-1.178c0.212-0.838,0.44-1.688,0.679-2.525
			c0.146-0.515,0.683-0.814,1.198-0.666c0.515,0.146,0.814,0.684,0.667,1.198c-0.233,0.818-0.457,1.648-0.664,2.468
			C306.285,514.383,305.89,514.677,305.457,514.677z M306.872,509.705c-0.097,0-0.196-0.015-0.293-0.046
			c-0.511-0.162-0.793-0.708-0.631-1.218c0.262-0.822,0.54-1.656,0.828-2.479c0.177-0.506,0.73-0.772,1.235-0.596
			c0.506,0.178,0.772,0.73,0.595,1.236c-0.282,0.805-0.554,1.62-0.809,2.425C307.665,509.441,307.284,509.705,306.872,509.705z
			 M308.58,504.825c-0.115,0-0.232-0.021-0.347-0.063c-0.5-0.192-0.75-0.753-0.559-1.254c0.308-0.805,0.635-1.621,0.97-2.426
			c0.206-0.494,0.773-0.727,1.268-0.522c0.495,0.206,0.729,0.774,0.522,1.269c-0.328,0.787-0.647,1.586-0.949,2.374
			C309.338,504.588,308.97,504.825,308.58,504.825z M310.566,500.053c-0.132,0-0.268-0.027-0.397-0.086
			c-0.488-0.219-0.706-0.793-0.486-1.281c0.354-0.789,0.725-1.584,1.104-2.367c0.233-0.481,0.813-0.684,1.295-0.451
			s0.685,0.813,0.451,1.295c-0.371,0.768-0.734,1.547-1.082,2.318C311.29,499.84,310.937,500.053,310.566,500.053z M312.815,495.398
			c-0.15,0-0.302-0.035-0.444-0.109c-0.476-0.245-0.662-0.83-0.416-1.307c0.395-0.764,0.809-1.539,1.23-2.303
			c0.258-0.469,0.848-0.639,1.317-0.381c0.468,0.259,0.64,0.848,0.381,1.316c-0.412,0.749-0.818,1.508-1.206,2.258
			C313.506,495.207,313.167,495.398,312.815,495.398z M315.31,490.87c-0.166,0-0.335-0.043-0.488-0.133
			c-0.463-0.271-0.618-0.864-0.348-1.327c0.434-0.74,0.886-1.492,1.346-2.234c0.282-0.455,0.88-0.597,1.335-0.314
			c0.456,0.281,0.596,0.879,0.314,1.335c-0.451,0.729-0.896,1.466-1.32,2.193C315.968,490.698,315.643,490.87,315.31,490.87z
			 M318.03,486.475c-0.182,0-0.365-0.052-0.53-0.158c-0.448-0.293-0.574-0.895-0.281-1.343c0.47-0.72,0.958-1.448,1.451-2.166
			c0.304-0.441,0.908-0.554,1.349-0.25c0.441,0.303,0.553,0.907,0.25,1.349c-0.484,0.705-0.964,1.421-1.426,2.128
			C318.658,486.318,318.347,486.475,318.03,486.475z M320.958,482.213c-0.197,0-0.395-0.06-0.566-0.184
			c-0.435-0.313-0.532-0.92-0.219-1.354c0.504-0.699,1.026-1.404,1.549-2.097c0.322-0.427,0.931-0.512,1.358-0.188
			c0.427,0.323,0.511,0.931,0.188,1.358c-0.514,0.681-1.027,1.374-1.523,2.062C321.556,482.073,321.259,482.213,320.958,482.213z
			 M324.076,478.089c-0.21,0-0.423-0.069-0.601-0.209c-0.42-0.333-0.491-0.942-0.16-1.362c0.531-0.672,1.082-1.354,1.637-2.027
			c0.34-0.413,0.952-0.473,1.365-0.131c0.413,0.341,0.472,0.951,0.131,1.365c-0.547,0.663-1.089,1.334-1.611,1.995
			C324.646,477.962,324.362,478.089,324.076,478.089z M327.365,474.1c-0.224,0-0.449-0.078-0.632-0.234
			c-0.406-0.35-0.452-0.961-0.104-1.367c0.562-0.654,1.134-1.307,1.717-1.959c0.356-0.399,0.969-0.435,1.369-0.077
			c0.399,0.356,0.434,0.97,0.077,1.369c-0.575,0.643-1.138,1.286-1.691,1.931C327.91,473.984,327.638,474.1,327.365,474.1z
			 M330.81,470.243c-0.236,0-0.473-0.086-0.66-0.259c-0.393-0.364-0.416-0.979-0.051-1.37c0.586-0.632,1.182-1.263,1.788-1.893
			c0.372-0.386,0.985-0.397,1.371-0.026s0.398,0.985,0.027,1.371c-0.599,0.622-1.186,1.244-1.764,1.867
			C331.33,470.139,331.07,470.243,330.81,470.243z M334.394,466.517c-0.247,0-0.495-0.095-0.684-0.283
			c-0.38-0.377-0.38-0.992-0.003-1.371c0.608-0.609,1.225-1.219,1.853-1.826c0.384-0.373,0.998-0.364,1.371,0.021
			c0.374,0.384,0.364,0.998-0.021,1.371c-0.62,0.601-1.229,1.202-1.829,1.804C334.892,466.422,334.643,466.517,334.394,466.517z
			 M338.105,462.917c-0.258,0-0.516-0.104-0.707-0.307c-0.366-0.391-0.347-1.004,0.043-1.37c0.626-0.589,1.263-1.177,1.91-1.766
			c0.396-0.36,1.01-0.331,1.37,0.065c0.361,0.396,0.332,1.01-0.065,1.369c-0.639,0.582-1.268,1.162-1.887,1.744
			C338.582,462.829,338.343,462.917,338.105,462.917z M341.931,459.438c-0.269,0-0.536-0.111-0.728-0.329
			c-0.354-0.4-0.316-1.014,0.086-1.368c0.645-0.569,1.299-1.137,1.962-1.705c0.407-0.349,1.018-0.301,1.367,0.106
			c0.348,0.406,0.301,1.019-0.106,1.367c-0.656,0.562-1.303,1.123-1.941,1.686C342.387,459.357,342.159,459.438,341.931,459.438z
			 M345.859,456.074c-0.279,0-0.555-0.119-0.747-0.35c-0.342-0.412-0.286-1.023,0.125-1.366c0.662-0.549,1.331-1.099,2.01-1.646
			c0.416-0.338,1.026-0.273,1.363,0.144s0.272,1.027-0.144,1.364c-0.672,0.543-1.335,1.087-1.989,1.631
			C346.297,456.001,346.077,456.074,345.859,456.074z M349.862,452.8c-0.277,0-0.552-0.117-0.744-0.346
			c-0.344-0.41-0.291-1.021,0.12-1.366c0.653-0.548,1.303-1.11,1.931-1.673c0.398-0.356,1.012-0.322,1.369,0.077
			c0.356,0.399,0.322,1.012-0.077,1.369c-0.644,0.575-1.309,1.151-1.977,1.712C350.303,452.726,350.082,452.8,349.862,452.8z
			 M353.714,449.354c-0.256,0-0.511-0.101-0.701-0.3c-0.37-0.387-0.356-1.001,0.031-1.371c0.615-0.587,1.226-1.19,1.816-1.793
			c0.375-0.384,0.988-0.391,1.371-0.016s0.39,0.988,0.015,1.371c-0.605,0.619-1.231,1.238-1.862,1.84
			C354.196,449.265,353.955,449.354,353.714,449.354z M357.33,445.659c-0.234,0-0.468-0.084-0.654-0.254
			c-0.395-0.361-0.423-0.975-0.062-1.37c0.573-0.628,1.142-1.271,1.688-1.912c0.348-0.407,0.959-0.457,1.368-0.109
			c0.407,0.347,0.456,0.959,0.109,1.367c-0.562,0.659-1.144,1.319-1.733,1.963C357.854,445.554,357.592,445.659,357.33,445.659z
			 M360.682,441.725c-0.21,0-0.424-0.068-0.602-0.21c-0.419-0.333-0.49-0.942-0.157-1.362c0.526-0.663,1.047-1.345,1.549-2.026
			c0.318-0.432,0.924-0.523,1.356-0.206c0.431,0.317,0.523,0.925,0.206,1.355c-0.515,0.7-1.05,1.4-1.59,2.082
			C361.251,441.599,360.968,441.725,360.682,441.725z M363.746,437.562c-0.188,0-0.378-0.055-0.545-0.169
			c-0.443-0.302-0.558-0.905-0.255-1.347c0.477-0.699,0.947-1.418,1.397-2.133c0.285-0.454,0.884-0.59,1.337-0.305
			c0.453,0.285,0.589,0.885,0.304,1.338c-0.463,0.735-0.946,1.473-1.437,2.191C364.36,437.413,364.057,437.562,363.746,437.562z
			 M366.501,433.187c-0.166,0-0.333-0.042-0.486-0.131c-0.464-0.269-0.622-0.861-0.353-1.324c0.423-0.73,0.84-1.48,1.238-2.23
			c0.252-0.473,0.838-0.651,1.312-0.4c0.473,0.252,0.652,0.839,0.401,1.312c-0.41,0.77-0.837,1.541-1.272,2.291
			C367.16,433.014,366.835,433.187,366.501,433.187z M368.925,428.627c-0.142,0-0.286-0.031-0.422-0.098
			c-0.482-0.233-0.683-0.813-0.449-1.296c0.371-0.763,0.73-1.54,1.071-2.311c0.216-0.49,0.788-0.712,1.279-0.496
			c0.49,0.217,0.711,0.789,0.495,1.279c-0.349,0.791-0.719,1.591-1.1,2.374C369.631,428.426,369.286,428.627,368.925,428.627z
			 M371.011,423.903c-0.12,0-0.241-0.022-0.359-0.069c-0.497-0.198-0.74-0.763-0.542-1.26c0.313-0.784,0.616-1.587,0.902-2.384
			c0.181-0.504,0.735-0.767,1.239-0.586c0.505,0.18,0.767,0.735,0.587,1.24c-0.293,0.818-0.605,1.643-0.926,2.447
			C371.761,423.672,371.397,423.903,371.011,423.903z M372.753,419.04c-0.097,0-0.196-0.016-0.294-0.047
			c-0.51-0.162-0.792-0.707-0.629-1.218c0.256-0.806,0.502-1.628,0.731-2.444c0.145-0.516,0.679-0.816,1.195-0.672
			c0.516,0.146,0.817,0.681,0.672,1.196c-0.234,0.837-0.487,1.681-0.75,2.509C373.545,418.776,373.164,419.04,372.753,419.04z
			 M374.149,414.063c-0.076,0-0.153-0.01-0.23-0.028c-0.52-0.127-0.839-0.651-0.713-1.171c0.2-0.822,0.39-1.659,0.563-2.49
			c0.109-0.525,0.623-0.862,1.147-0.752c0.524,0.108,0.861,0.622,0.751,1.146c-0.178,0.854-0.371,1.713-0.576,2.555
			C374.983,413.766,374.586,414.063,374.149,414.063z M375.204,409.001c-0.055,0-0.11-0.005-0.167-0.015
			c-0.527-0.092-0.88-0.594-0.789-1.122c0.145-0.834,0.278-1.683,0.396-2.523c0.075-0.531,0.567-0.898,1.095-0.825
			c0.531,0.074,0.9,0.564,0.826,1.095c-0.121,0.861-0.258,1.732-0.406,2.586C376.077,408.669,375.667,409.001,375.204,409.001z
			 M375.925,403.879c-0.034,0-0.07-0.002-0.105-0.006c-0.532-0.058-0.917-0.536-0.86-1.068c0.091-0.838,0.17-1.695,0.236-2.547
			c0.041-0.533,0.509-0.934,1.042-0.893c0.534,0.041,0.933,0.508,0.892,1.042c-0.067,0.871-0.148,1.748-0.241,2.605
			C376.834,403.51,376.414,403.879,375.925,403.879z M376.323,398.72c-0.015,0-0.031,0-0.046-0.001
			c-0.535-0.025-0.948-0.479-0.923-1.014c0.039-0.843,0.066-1.703,0.081-2.559c0.009-0.535,0.458-0.959,0.986-0.952
			c0.536,0.009,0.963,0.45,0.954,0.985c-0.016,0.874-0.043,1.754-0.083,2.615C377.267,398.314,376.837,398.72,376.323,398.72z
			 M376.411,393.545c-0.53,0-0.963-0.427-0.97-0.958c-0.01-0.849-0.032-1.71-0.066-2.56c-0.021-0.535,0.395-0.986,0.93-1.008
			c0.529-0.015,0.986,0.396,1.008,0.931c0.035,0.868,0.058,1.747,0.067,2.614c0.007,0.535-0.422,0.975-0.958,0.98
			C376.419,393.545,376.415,393.545,376.411,393.545z M376.204,388.371c-0.505,0-0.932-0.393-0.966-0.904
			c-0.057-0.842-0.127-1.7-0.207-2.552c-0.05-0.533,0.341-1.006,0.875-1.056c0.53-0.054,1.006,0.341,1.056,0.875
			c0.082,0.868,0.153,1.744,0.211,2.603c0.036,0.535-0.368,0.997-0.902,1.033C376.248,388.371,376.226,388.371,376.204,388.371z
			 M375.718,383.224c-0.484,0-0.902-0.361-0.961-0.854c-0.102-0.843-0.216-1.697-0.34-2.539c-0.078-0.529,0.289-1.022,0.819-1.1
			c0.529-0.078,1.022,0.289,1.1,0.819c0.126,0.858,0.243,1.729,0.347,2.587c0.064,0.532-0.314,1.015-0.846,1.079
			C375.797,383.221,375.757,383.224,375.718,383.224z M374.968,378.106c-0.463,0-0.873-0.333-0.955-0.805
			c-0.143-0.83-0.299-1.678-0.465-2.52c-0.104-0.525,0.238-1.036,0.764-1.139c0.525-0.103,1.035,0.238,1.139,0.764
			c0.169,0.857,0.329,1.721,0.474,2.566c0.09,0.528-0.263,1.029-0.792,1.121C375.078,378.102,375.022,378.106,374.968,378.106z
			 M373.966,373.033c-0.444,0-0.845-0.308-0.946-0.759c-0.184-0.831-0.381-1.67-0.585-2.496c-0.129-0.521,0.189-1.046,0.708-1.174
			c0.518-0.127,1.045,0.188,1.174,0.709c0.208,0.84,0.408,1.695,0.596,2.54c0.116,0.523-0.213,1.041-0.735,1.157
			C374.107,373.025,374.036,373.033,373.966,373.033z M372.726,368.012c-0.427,0-0.818-0.284-0.935-0.716
			c-0.222-0.818-0.457-1.648-0.7-2.467c-0.152-0.513,0.142-1.053,0.655-1.205c0.513-0.152,1.053,0.141,1.205,0.655
			c0.247,0.833,0.486,1.677,0.712,2.509c0.14,0.517-0.166,1.049-0.682,1.189C372.896,368.001,372.811,368.012,372.726,368.012z
			 M371.258,363.043c-0.411,0-0.792-0.263-0.924-0.675c-0.258-0.808-0.531-1.63-0.811-2.442c-0.174-0.507,0.095-1.059,0.602-1.232
			c0.507-0.175,1.058,0.095,1.232,0.601c0.285,0.826,0.562,1.662,0.824,2.483c0.164,0.51-0.118,1.056-0.628,1.219
			C371.455,363.028,371.355,363.043,371.258,363.043z M369.571,358.136c-0.396,0-0.766-0.243-0.911-0.635
			c-0.294-0.803-0.603-1.612-0.915-2.405c-0.195-0.499,0.051-1.062,0.549-1.257c0.499-0.195,1.062,0.05,1.257,0.549
			c0.316,0.806,0.628,1.628,0.929,2.444c0.185,0.502-0.072,1.06-0.575,1.245C369.795,358.116,369.682,358.136,369.571,358.136z
			 M367.677,353.307c-0.38,0-0.74-0.225-0.896-0.597c-0.328-0.786-0.668-1.582-1.014-2.364c-0.215-0.491,0.007-1.063,0.497-1.279
			c0.49-0.216,1.063,0.006,1.279,0.497c0.35,0.795,0.696,1.603,1.028,2.401c0.206,0.495-0.028,1.063-0.522,1.268
			C367.928,353.283,367.802,353.307,367.677,353.307z M365.588,348.564c-0.366,0-0.716-0.208-0.88-0.561
			c-0.36-0.773-0.732-1.554-1.108-2.32c-0.235-0.481-0.037-1.062,0.444-1.297c0.48-0.236,1.062-0.037,1.297,0.444
			c0.381,0.778,0.76,1.57,1.125,2.355c0.226,0.485,0.016,1.062-0.47,1.288C365.864,348.535,365.725,348.564,365.588,348.564z
			 M140.811,344.597c-0.168,0-0.339-0.044-0.494-0.137c-0.46-0.273-0.612-0.868-0.338-1.329c0.02-0.033,0.495-0.831,1.463-2.236
			c0.304-0.441,0.907-0.553,1.348-0.249c0.441,0.304,0.553,0.908,0.249,1.349c-0.926,1.344-1.388,2.119-1.393,2.126
			C141.464,344.427,141.142,344.597,140.811,344.597z M363.31,343.912c-0.352,0-0.691-0.192-0.863-0.526
			c-0.392-0.761-0.792-1.519-1.198-2.272c-0.255-0.471-0.079-1.06,0.392-1.314s1.059-0.079,1.314,0.392
			c0.414,0.765,0.819,1.534,1.216,2.307c0.246,0.477,0.058,1.061-0.418,1.306C363.61,343.877,363.459,343.912,363.31,343.912z
			 M143.746,340.303c-0.2,0-0.402-0.062-0.575-0.189c-0.431-0.318-0.523-0.925-0.206-1.356c0.505-0.685,1.037-1.387,1.582-2.086
			c0.329-0.422,0.938-0.498,1.361-0.169c0.423,0.329,0.499,0.938,0.169,1.361c-0.534,0.686-1.056,1.374-1.551,2.045
			C144.337,340.167,144.043,340.303,143.746,340.303z M360.85,339.358c-0.338,0-0.667-0.177-0.845-0.492
			c-0.422-0.745-0.851-1.486-1.287-2.222c-0.273-0.461-0.12-1.056,0.34-1.329s1.055-0.121,1.328,0.34
			c0.443,0.747,0.878,1.499,1.306,2.255c0.264,0.466,0.1,1.058-0.366,1.322C361.175,339.317,361.012,339.358,360.85,339.358z
			 M146.929,336.212c-0.216,0-0.434-0.071-0.614-0.219c-0.414-0.339-0.476-0.95-0.136-1.364c0.541-0.661,1.105-1.334,1.676-2.002
			c0.348-0.406,0.96-0.455,1.368-0.106s0.455,0.961,0.106,1.368c-0.563,0.657-1.117,1.319-1.649,1.969
			C147.488,336.091,147.21,336.212,146.929,336.212z M358.215,334.907c-0.325,0-0.643-0.163-0.826-0.459
			c-0.45-0.728-0.908-1.45-1.371-2.168c-0.291-0.45-0.162-1.05,0.288-1.341c0.45-0.291,1.05-0.162,1.341,0.288
			c0.471,0.729,0.935,1.462,1.392,2.2c0.282,0.456,0.141,1.054-0.314,1.335C358.565,334.86,358.389,334.907,358.215,334.907z
			 M150.297,332.279c-0.23,0-0.461-0.082-0.646-0.247c-0.399-0.357-0.434-0.97-0.077-1.369c0.576-0.645,1.168-1.293,1.759-1.927
			c0.365-0.392,0.979-0.413,1.371-0.048c0.392,0.365,0.413,0.979,0.048,1.371c-0.582,0.625-1.164,1.263-1.731,1.897
			C150.829,332.17,150.564,332.279,150.297,332.279z M355.409,330.567c-0.312,0-0.618-0.15-0.805-0.427
			c-0.478-0.709-0.963-1.413-1.454-2.111c-0.308-0.438-0.203-1.043,0.235-1.351c0.437-0.309,1.043-0.203,1.35,0.235
			c0.499,0.708,0.992,1.423,1.477,2.143c0.3,0.444,0.182,1.046-0.261,1.346C355.784,330.513,355.595,330.567,355.409,330.567z
			 M153.826,328.491c-0.243,0-0.486-0.091-0.675-0.273c-0.384-0.373-0.394-0.987-0.021-1.371c0.589-0.608,1.201-1.227,1.833-1.854
			c0.38-0.377,0.994-0.375,1.371,0.006c0.377,0.38,0.375,0.994-0.005,1.371c-0.623,0.618-1.225,1.227-1.807,1.827
			C154.333,328.393,154.08,328.491,153.826,328.491z M352.438,326.344c-0.298,0-0.593-0.137-0.783-0.396
			c-0.505-0.689-1.017-1.373-1.535-2.051c-0.325-0.425-0.244-1.034,0.182-1.359c0.425-0.326,1.034-0.245,1.359,0.181
			c0.526,0.688,1.045,1.382,1.559,2.081c0.316,0.432,0.224,1.039-0.208,1.355C352.837,326.283,352.637,326.344,352.438,326.344z
			 M157.501,324.847c-0.256,0-0.511-0.1-0.702-0.3c-0.37-0.387-0.355-1.001,0.032-1.371c0.616-0.588,1.25-1.182,1.902-1.781
			c0.395-0.361,1.008-0.336,1.37,0.059c0.362,0.395,0.336,1.008-0.059,1.37c-0.643,0.591-1.268,1.176-1.875,1.756
			C157.983,324.758,157.742,324.847,157.501,324.847z M349.303,322.245c-0.285,0-0.567-0.125-0.759-0.366
			c-0.529-0.664-1.072-1.332-1.614-1.985c-0.342-0.412-0.286-1.023,0.126-1.365c0.413-0.343,1.023-0.285,1.365,0.126
			c0.551,0.663,1.103,1.341,1.64,2.015c0.333,0.419,0.265,1.029-0.154,1.363C349.729,322.176,349.516,322.245,349.303,322.245z
			 M161.312,321.347c-0.268,0-0.535-0.11-0.726-0.327c-0.355-0.401-0.317-1.015,0.083-1.369c0.64-0.566,1.296-1.136,1.968-1.708
			c0.407-0.348,1.02-0.298,1.367,0.109c0.348,0.408,0.299,1.02-0.109,1.367c-0.663,0.564-1.309,1.126-1.94,1.684
			C161.77,321.267,161.54,321.347,161.312,321.347z M346.01,318.279c-0.271,0-0.542-0.114-0.734-0.335
			c-0.556-0.643-1.128-1.291-1.699-1.923c-0.358-0.397-0.327-1.011,0.071-1.37c0.397-0.359,1.011-0.327,1.37,0.071
			c0.58,0.643,1.161,1.3,1.726,1.953c0.351,0.405,0.307,1.018-0.099,1.368C346.461,318.202,346.235,318.279,346.01,318.279z
			 M165.25,317.991c-0.281,0-0.558-0.121-0.75-0.354c-0.34-0.415-0.28-1.025,0.134-1.365c0.662-0.543,1.338-1.088,2.029-1.634
			c0.419-0.332,1.029-0.261,1.362,0.16c0.332,0.42,0.261,1.03-0.16,1.362c-0.681,0.538-1.348,1.076-2,1.611
			C165.684,317.918,165.467,317.991,165.25,317.991z M169.309,314.782c-0.292,0-0.582-0.132-0.772-0.382
			c-0.324-0.426-0.242-1.035,0.184-1.359c0.683-0.52,1.377-1.039,2.086-1.559c0.431-0.317,1.039-0.224,1.355,0.208
			c0.316,0.432,0.223,1.039-0.208,1.355c-0.699,0.513-1.385,1.025-2.059,1.538C169.72,314.718,169.513,314.782,169.309,314.782z
			 M342.544,314.439c-0.258,0-0.515-0.103-0.706-0.305c-0.585-0.621-1.183-1.244-1.778-1.85c-0.375-0.382-0.37-0.996,0.012-1.372
			c0.382-0.375,0.996-0.37,1.372,0.012c0.604,0.616,1.212,1.249,1.807,1.88c0.367,0.39,0.348,1.003-0.042,1.371
			C343.022,314.352,342.783,314.439,342.544,314.439z M173.48,311.724c-0.304,0-0.604-0.143-0.793-0.41
			c-0.309-0.438-0.205-1.043,0.233-1.352c0.702-0.495,1.415-0.989,2.141-1.482c0.443-0.301,1.046-0.186,1.347,0.257
			c0.301,0.443,0.186,1.046-0.258,1.347c-0.715,0.486-1.419,0.974-2.111,1.462C173.869,311.667,173.673,311.724,173.48,311.724z
			 M338.919,310.749c-0.244,0-0.488-0.092-0.677-0.276c-0.61-0.594-1.234-1.189-1.856-1.77c-0.392-0.366-0.413-0.979-0.048-1.371
			c0.366-0.392,0.979-0.413,1.371-0.048c0.633,0.59,1.267,1.196,1.887,1.8c0.383,0.375,0.392,0.988,0.018,1.372
			C339.424,310.651,339.172,310.749,338.919,310.749z M177.759,308.818c-0.316,0-0.626-0.155-0.813-0.439
			c-0.293-0.448-0.167-1.049,0.281-1.342c0.72-0.47,1.45-0.938,2.192-1.404c0.455-0.285,1.052-0.147,1.337,0.306
			c0.285,0.454,0.148,1.052-0.306,1.337c-0.732,0.46-1.453,0.922-2.163,1.386C178.125,308.767,177.941,308.818,177.759,308.818z
			 M335.136,307.221c-0.229,0-0.459-0.081-0.645-0.246c-0.641-0.571-1.292-1.138-1.934-1.684c-0.408-0.347-0.458-0.959-0.111-1.367
			c0.347-0.409,0.959-0.458,1.367-0.111c0.653,0.556,1.315,1.132,1.968,1.713c0.4,0.356,0.435,0.969,0.079,1.369
			C335.669,307.111,335.404,307.221,335.136,307.221z M182.139,306.067c-0.329,0-0.649-0.167-0.831-0.469
			c-0.277-0.458-0.13-1.055,0.33-1.332c0.736-0.444,1.483-0.886,2.24-1.325c0.464-0.269,1.057-0.11,1.325,0.353
			c0.269,0.463,0.111,1.057-0.353,1.325c-0.747,0.433-1.484,0.869-2.211,1.308C182.482,306.022,182.31,306.067,182.139,306.067z
			 M331.195,303.871c-0.214,0-0.43-0.071-0.609-0.216c-0.662-0.536-1.338-1.071-2.011-1.589c-0.424-0.327-0.503-0.936-0.176-1.36
			s0.936-0.503,1.361-0.176c0.685,0.528,1.374,1.073,2.046,1.619c0.417,0.337,0.48,0.948,0.144,1.364
			C331.758,303.749,331.478,303.871,331.195,303.871z M186.614,303.475c-0.341,0-0.671-0.18-0.849-0.499
			c-0.26-0.468-0.091-1.058,0.376-1.318c0.751-0.418,1.514-0.833,2.286-1.245c0.472-0.252,1.06-0.074,1.312,0.399
			s0.073,1.061-0.399,1.313c-0.762,0.406-1.513,0.815-2.256,1.229C186.935,303.435,186.773,303.475,186.614,303.475z
			 M191.177,301.042c-0.353,0-0.693-0.193-0.865-0.528c-0.243-0.477-0.054-1.062,0.422-1.305c0.767-0.391,1.543-0.779,2.329-1.163
			c0.481-0.236,1.062-0.036,1.297,0.445c0.235,0.481,0.036,1.062-0.445,1.297c-0.775,0.379-1.541,0.762-2.297,1.148
			C191.476,301.008,191.325,301.042,191.177,301.042z M327.099,300.713c-0.198,0-0.399-0.061-0.572-0.187
			c-0.689-0.505-1.391-1.005-2.086-1.486c-0.44-0.305-0.549-0.909-0.244-1.35c0.305-0.44,0.91-0.55,1.349-0.244
			c0.708,0.49,1.423,1,2.126,1.515c0.432,0.316,0.526,0.923,0.21,1.355C327.692,300.576,327.397,300.713,327.099,300.713z
			 M195.823,298.771c-0.365,0-0.714-0.207-0.879-0.56c-0.227-0.485-0.017-1.063,0.468-1.289c0.78-0.364,1.569-0.725,2.367-1.082
			c0.488-0.218,1.063,0.001,1.281,0.491c0.218,0.489-0.001,1.063-0.491,1.281c-0.788,0.352-1.566,0.708-2.337,1.067
			C196.1,298.741,195.96,298.771,195.823,298.771z M322.848,297.767c-0.182,0-0.366-0.051-0.53-0.158
			c-0.715-0.468-1.441-0.93-2.16-1.374c-0.456-0.281-0.598-0.878-0.316-1.334c0.282-0.456,0.879-0.597,1.334-0.316
			c0.733,0.453,1.475,0.924,2.205,1.402c0.448,0.293,0.573,0.894,0.28,1.342C323.474,297.613,323.164,297.767,322.848,297.767z
			 M200.544,296.663c-0.377,0-0.735-0.221-0.893-0.59c-0.209-0.493,0.02-1.063,0.513-1.272c0.792-0.337,1.594-0.67,2.403-0.999
			c0.496-0.202,1.062,0.038,1.263,0.534s-0.037,1.062-0.534,1.264c-0.799,0.324-1.59,0.652-2.373,0.986
			C200.8,296.638,200.671,296.663,200.544,296.663z M318.446,295.053c-0.165,0-0.332-0.042-0.485-0.13
			c-0.737-0.426-1.487-0.847-2.232-1.249c-0.471-0.254-0.646-0.843-0.392-1.314c0.255-0.471,0.843-0.646,1.314-0.392
			c0.76,0.411,1.528,0.841,2.281,1.276c0.463,0.269,0.622,0.861,0.354,1.325C319.106,294.88,318.781,295.053,318.446,295.053z
			 M205.336,294.72c-0.389,0-0.757-0.236-0.905-0.621c-0.193-0.5,0.056-1.061,0.555-1.254c0.804-0.31,1.615-0.615,2.435-0.916
			c0.502-0.185,1.06,0.073,1.245,0.576c0.184,0.503-0.074,1.06-0.577,1.245c-0.81,0.296-1.611,0.598-2.404,0.904
			C205.57,294.698,205.452,294.72,205.336,294.72z M210.191,292.941c-0.401,0-0.777-0.251-0.917-0.652
			c-0.175-0.506,0.092-1.059,0.598-1.234c0.814-0.282,1.636-0.56,2.465-0.833c0.508-0.167,1.057,0.109,1.224,0.619
			c0.167,0.509-0.11,1.057-0.619,1.224c-0.819,0.269-1.63,0.543-2.434,0.822C210.404,292.923,210.296,292.941,210.191,292.941z
			 M313.896,292.595c-0.146,0-0.294-0.034-0.435-0.104c-0.763-0.384-1.538-0.758-2.302-1.112c-0.485-0.226-0.696-0.802-0.471-1.288
			c0.226-0.485,0.803-0.697,1.289-0.471c0.781,0.363,1.573,0.746,2.354,1.138c0.479,0.241,0.671,0.824,0.431,1.302
			C314.594,292.399,314.252,292.595,313.896,292.595z M215.103,291.326c-0.414,0-0.797-0.267-0.926-0.683
			c-0.158-0.512,0.127-1.055,0.639-1.214c0.823-0.255,1.653-0.505,2.491-0.75c0.514-0.151,1.053,0.145,1.203,0.659
			c0.15,0.514-0.145,1.053-0.659,1.203c-0.828,0.242-1.648,0.489-2.46,0.741C215.294,291.312,215.198,291.326,215.103,291.326z
			 M309.207,290.419c-0.126,0-0.255-0.025-0.379-0.078c-0.782-0.333-1.578-0.656-2.365-0.961c-0.5-0.193-0.748-0.755-0.554-1.254
			c0.193-0.5,0.755-0.748,1.254-0.554c0.807,0.313,1.624,0.644,2.425,0.985c0.493,0.21,0.722,0.779,0.512,1.272
			C309.942,290.198,309.584,290.419,309.207,290.419z M220.065,289.876c-0.426,0-0.816-0.283-0.935-0.713
			c-0.142-0.516,0.162-1.05,0.679-1.192c0.831-0.228,1.669-0.451,2.513-0.668c0.519-0.133,1.048,0.179,1.181,0.698
			c0.133,0.519-0.179,1.047-0.698,1.181c-0.834,0.215-1.663,0.435-2.483,0.66C220.237,289.865,220.15,289.876,220.065,289.876z
			 M225.072,288.588c-0.438,0-0.835-0.299-0.942-0.744c-0.125-0.521,0.196-1.044,0.716-1.169c0.838-0.201,1.683-0.397,2.534-0.587
			c0.522-0.117,1.041,0.213,1.157,0.736c0.117,0.522-0.213,1.041-0.735,1.157c-0.841,0.188-1.676,0.381-2.503,0.58
			C225.223,288.58,225.147,288.588,225.072,288.588z M304.385,288.554c-0.105,0-0.213-0.018-0.319-0.054
			c-0.804-0.28-1.619-0.548-2.423-0.796c-0.511-0.158-0.798-0.701-0.64-1.212c0.158-0.512,0.7-0.799,1.213-0.641
			c0.825,0.255,1.663,0.53,2.488,0.817c0.506,0.176,0.773,0.729,0.598,1.234C305.162,288.303,304.786,288.554,304.385,288.554z
			 M230.118,287.461c-0.45,0-0.854-0.315-0.948-0.774c-0.108-0.524,0.229-1.037,0.753-1.146c0.844-0.174,1.694-0.343,2.55-0.506
			c0.524-0.1,1.034,0.245,1.134,0.771c0.101,0.526-0.245,1.034-0.771,1.134c-0.847,0.162-1.687,0.329-2.521,0.501
			C230.249,287.455,230.183,287.461,230.118,287.461z M299.446,287.03c-0.083,0-0.167-0.011-0.252-0.034
			c-0.823-0.221-1.655-0.428-2.473-0.615c-0.522-0.119-0.849-0.639-0.729-1.161c0.12-0.522,0.639-0.848,1.161-0.729
			c0.841,0.192,1.697,0.404,2.544,0.632c0.518,0.139,0.824,0.671,0.685,1.188C300.266,286.745,299.874,287.03,299.446,287.03z
			 M235.197,286.494c-0.463,0-0.872-0.332-0.954-0.804c-0.092-0.527,0.261-1.029,0.789-1.122c0.849-0.148,1.704-0.291,2.564-0.428
			c0.529-0.083,1.026,0.277,1.11,0.806s-0.277,1.026-0.806,1.11c-0.851,0.136-1.696,0.276-2.535,0.423
			C235.309,286.489,235.252,286.494,235.197,286.494z M294.408,285.88c-0.06,0-0.12-0.006-0.18-0.017
			c-0.837-0.157-1.683-0.298-2.511-0.419c-0.529-0.077-0.896-0.57-0.818-1.1c0.076-0.53,0.57-0.897,1.099-0.819
			c0.854,0.124,1.725,0.27,2.588,0.431c0.526,0.099,0.873,0.605,0.774,1.132C295.273,285.555,294.865,285.88,294.408,285.88z
			 M240.303,285.683c-0.475,0-0.889-0.349-0.958-0.832c-0.076-0.53,0.292-1.021,0.822-1.098c0.853-0.123,1.711-0.239,2.576-0.35
			c0.528-0.068,1.017,0.308,1.085,0.839c0.068,0.531-0.308,1.017-0.839,1.085c-0.855,0.109-1.704,0.225-2.547,0.346
			C240.396,285.68,240.349,285.683,240.303,285.683z M289.294,285.132c-0.035,0-0.071-0.002-0.106-0.006
			c-0.857-0.093-1.711-0.181-2.561-0.263c-0.533-0.052-0.923-0.526-0.872-1.059c0.051-0.534,0.523-0.924,1.059-0.872
			c0.856,0.083,1.717,0.171,2.582,0.265c0.533,0.058,0.917,0.536,0.86,1.068C290.203,284.764,289.783,285.132,289.294,285.132z
			 M245.431,285.026c-0.487,0-0.906-0.366-0.962-0.861c-0.06-0.532,0.322-1.012,0.854-1.072c0.856-0.098,1.718-0.188,2.585-0.274
			c0.537-0.052,1.008,0.337,1.061,0.87c0.052,0.533-0.337,1.007-0.871,1.06c-0.858,0.084-1.71,0.175-2.557,0.271
			C245.504,285.024,245.467,285.026,245.431,285.026z M284.148,284.634c-0.028,0-0.055-0.001-0.084-0.004
			c-0.858-0.073-1.714-0.141-2.564-0.203c-0.535-0.039-0.936-0.504-0.897-1.038c0.04-0.534,0.507-0.938,1.038-0.896
			c0.858,0.063,1.721,0.131,2.589,0.205c0.534,0.045,0.929,0.515,0.884,1.048C285.07,284.252,284.646,284.634,284.148,284.634z
			 M250.577,284.519c-0.499,0-0.923-0.383-0.966-0.889c-0.044-0.533,0.353-1.002,0.886-1.047c0.858-0.072,1.722-0.139,2.591-0.199
			c0.54-0.038,0.998,0.366,1.035,0.9c0.038,0.534-0.365,0.998-0.9,1.035c-0.86,0.06-1.714,0.125-2.564,0.197
			C250.631,284.518,250.604,284.519,250.577,284.519z M278.992,284.255c-0.021,0-0.041,0-0.061-0.002
			c-0.861-0.052-1.717-0.1-2.57-0.142c-0.535-0.026-0.947-0.481-0.92-1.016c0.025-0.535,0.482-0.946,1.016-0.921
			c0.859,0.042,1.724,0.09,2.593,0.143c0.535,0.033,0.942,0.493,0.909,1.027C279.927,283.859,279.5,284.255,278.992,284.255z
			 M255.735,284.159c-0.511,0-0.938-0.399-0.968-0.916c-0.029-0.534,0.379-0.992,0.914-1.022c0.86-0.048,1.726-0.09,2.596-0.126
			c0.532-0.026,0.987,0.393,1.009,0.928c0.023,0.535-0.393,0.987-0.928,1.009c-0.862,0.036-1.718,0.078-2.569,0.125
			C255.771,284.159,255.753,284.159,255.735,284.159z M273.828,284.002c-0.012,0-0.024,0-0.037,0
			c-0.861-0.032-1.718-0.058-2.571-0.079c-0.535-0.012-0.959-0.457-0.946-0.993c0.012-0.535,0.45-0.961,0.992-0.946
			c0.861,0.021,1.727,0.047,2.597,0.079c0.535,0.02,0.953,0.469,0.934,1.004C274.777,283.592,274.346,284.002,273.828,284.002z
			 M260.901,283.943c-0.523,0-0.953-0.417-0.969-0.942c-0.015-0.536,0.407-0.981,0.942-0.997c0.861-0.024,1.727-0.043,2.598-0.056
			c0.005,0,0.01,0,0.015,0c0.528,0,0.961,0.425,0.97,0.956c0.007,0.536-0.42,0.976-0.956,0.984c-0.863,0.012-1.72,0.031-2.572,0.055
			C260.92,283.943,260.91,283.943,260.901,283.943z M268.658,283.878c-0.004,0-0.008,0-0.012,0c-0.75-0.009-1.496-0.013-2.238-0.013
			l-0.334,0c-0.001,0-0.001,0-0.002,0c-0.535,0-0.969-0.433-0.969-0.968c-0.001-0.536,0.432-0.971,0.968-0.971l0.337,0
			c0.75,0,1.503,0.004,2.26,0.013c0.535,0.006,0.964,0.445,0.958,0.98C269.622,283.451,269.188,283.878,268.658,283.878z"/>
	</g>
	<path fill="#A8D29F" d="M783.172,776.337c0,0-40.881,0.072-103.232,0.218c-0.931-0.435-1.429-0.688-1.429-0.688
		s7.045-41.952,43.606-50.957c36.56-9.006,36.992-47.449,59.825-55.117c18.778-6.293,35.563,2.025,46.963-0.108
		C846.92,731.71,783.172,776.337,783.172,776.337z"/>
	<g>
		<g>
			<path fill="#FFB27D" d="M235.84,630.747c0,0-0.596,0.638-1.702,1.831c-4.046,4.385-15.031,16.308-27.125,30.019
				c-2.852,3.236-5.79,6.601-8.728,9.963c-4.387,5.068-8.688,10.135-12.689,15.031l-0.043,0.043
				c-1.235,1.447-2.384,2.853-3.533,4.258c-2.386,2.938-4.6,5.748-6.643,8.389c-6.132,8.005-10.433,14.477-11.242,17.756
				c-4.896,20.48,4.642,78.135,7.111,92.229H37.459c4.045-29.295,9.665-70.683,10.39-76.984
				c1.107-9.922-33.511-52.502-34.106-83.586c-0.555-31.041,19.97-53.268,23.206-83.84c1.575-14.393-0.214-33.128-2.513-49.096
				c-1.192-8.474-2.598-16.053-3.704-21.802c-0.554-2.81,0.383-5.408,2.129-7.195c0.469-0.469,0.979-0.938,1.533-1.235
				c2.129-1.403,4.896-1.745,7.536-0.596c7.665,3.279,16.181,11.966,18.395,33.638c0,0,6.43,4.045,16.819,10.646
				c4.216,2.641,9.07,5.706,14.435,9.113c4.131,2.597,8.56,5.407,13.2,8.346c0.298,0.17,0.597,0.383,0.894,0.554
				c1.874,1.19,3.705,2.384,5.664,3.618h0.042c0.681,0.426,1.363,0.895,2.087,1.32c1.234,0.809,2.513,1.617,3.832,2.428
				c0.255,0.169,0.511,0.34,0.81,0.468c8.431,5.365,17.244,10.985,26.144,16.649h0.043c1.447,0.85,2.896,1.788,4.343,2.725
				c1.107,0.724,2.257,1.404,3.407,2.129c1.404,0.937,2.853,1.83,4.3,2.725h0.043c10.091,6.387,19.97,12.689,29.21,18.523
				c1.447,0.936,2.896,1.83,4.3,2.725c1.15,0.725,2.257,1.448,3.364,2.129c1.49,0.937,2.853,1.83,4.258,2.768h0.043
				c17.628,11.113,31.254,19.8,36.235,22.994C235.116,630.278,235.84,630.704,235.84,630.747z"/>
			<path fill="#FFC197" d="M41.252,509.273c0.202,3.617-2.295,6.786-5.878,7.328l-0.928,0.137c-1.214-8.436-2.6-16.039-3.707-21.79
				c-0.547-2.811-1.386-5.512-1.147-8.39c5.821-2.848,8.061,4.037,8.776,6.831C39.566,497.932,40.926,504.041,41.252,509.273z"/>
		</g>
		<path opacity="0.3" fill="#E2915A" d="M198.285,672.56c-4.387,5.068-8.688,10.135-12.689,15.031l-0.043,0.043
			c-1.235,1.447-2.384,2.853-3.533,4.258c-2.386,2.938-4.6,5.748-6.643,8.389c-6.132,8.005-10.433,14.477-11.242,17.756
			c-4.896,20.48,4.642,78.135,7.111,92.229H84.212c16.139-24.058,18.224-66.424,18.353-85.885
			c0.042-4.896,1.617-10.771,4.173-16.988c4.854-12.01,13.199-25.464,20.864-36.578c7.067-10.303,13.583-18.564,16.223-21.843
			c0,0,0,0,0-0.042c0.852-0.98,1.277-1.533,1.277-1.533l48.115-2.045h0.043l0.639,3.407l0.511,2.896l2.214,12.008L198.285,672.56z"
			/>
		<g>
			<g>
				<path fill="#D3671E" d="M232.235,694.405L88.232,709.287c-4.515,0.466-8.591-2.846-9.058-7.36L49.414,413.953
					c-0.467-4.516,2.846-8.591,7.36-9.058l144.003-14.882c4.516-0.467,8.591,2.845,9.057,7.36l29.762,287.973
					C240.063,689.862,236.75,693.938,232.235,694.405z"/>
				<path fill="#F99746" d="M247.785,692.798L103.783,707.68c-4.516,0.467-8.592-2.847-9.058-7.36L64.964,412.346
					c-0.466-4.516,2.846-8.591,7.36-9.057l144.003-14.883c4.515-0.467,8.591,2.845,9.058,7.36l29.762,287.973
					C255.612,688.255,252.3,692.331,247.785,692.798z"/>
				<g>
					<path opacity="0.4" fill="#D3671E" d="M170.816,406.395c-0.092-0.893-0.898-1.548-1.79-1.455l-41.701,4.31
						c-0.892,0.093-1.547,0.897-1.455,1.79c0.093,0.893,0.897,1.547,1.79,1.455l41.701-4.31
						C170.254,408.092,170.909,407.287,170.816,406.395z"/>
					<path opacity="0.4" fill="#D3671E" d="M119.919,410.015c-0.893,0.093-1.548,0.897-1.455,1.79s0.897,1.547,1.79,1.455
						s1.548-0.898,1.455-1.79C121.616,410.577,120.812,409.923,119.919,410.015z"/>
				</g>
				<circle opacity="0.4" fill="#D86713" cx="176.033" cy="683.214" r="10.52"/>
				
					<rect x="92.33" y="419.346" transform="matrix(0.9947 -0.1028 0.1028 0.9947 -54.9833 19.2595)" fill="#FBECDB" width="134.086" height="247.514"/>
				
					<rect x="103.578" y="637.568" transform="matrix(0.9947 -0.1028 0.1028 0.9947 -66.1108 20.9922)" fill="#FCE6D2" width="134.086" height="28.732"/>
				<g>
					<path fill="#F1A34F" d="M145.404,650.284l68.835-7.113c0.795-0.083,1.379-0.801,1.297-1.596
						c-0.083-0.797-0.801-1.381-1.596-1.298l-68.836,7.113c-0.796,0.083-1.38,0.802-1.298,1.597l0,0
						C143.89,649.783,144.607,650.366,145.404,650.284z"/>
					<path fill="#F1A34F" d="M216.19,647.913c-0.082-0.796-0.8-1.379-1.596-1.297l-68.835,7.113
						c-0.796,0.082-1.379,0.801-1.297,1.596c0.082,0.797,0.8,1.38,1.596,1.299l68.835-7.114
						C215.689,649.427,216.272,648.708,216.19,647.913z"/>
				</g>
				<path fill="#D3671E" d="M134.584,644.032c-0.085-0.98-0.341-1.875-0.723-2.727c-1.576-3.959-5.621-6.514-10.049-6.045
					c-4.43,0.468-7.878,3.788-8.645,7.961c-0.17,0.938-0.212,1.875-0.128,2.854c0.554,5.365,11.582,16.352,11.582,16.352
					S135.139,649.438,134.584,644.032z M125.26,649.524c-2.512,0.256-4.77-1.576-5.024-4.088c-0.086-1.021,0.128-2.002,0.596-2.811
					c0.724-1.234,2.001-2.086,3.492-2.257c1.532-0.17,2.938,0.425,3.874,1.49c0.639,0.682,1.064,1.575,1.192,2.597
					C129.645,647.012,127.814,649.269,125.26,649.524z"/>
				<g>
					
						<rect x="101.891" y="457.59" transform="matrix(-0.9947 0.1028 -0.1028 -0.9947 330.6713 961.8873)" fill="#D3671E" width="77.314" height="63.749"/>
					
						<rect x="141.041" y="453.58" transform="matrix(-0.1028 -0.9947 0.9947 -0.1028 -292.8522 708.0938)" fill="#F1A34F" width="63.75" height="65.079"/>
					<polygon opacity="0.4" fill="#D86713" points="206.897,498.399 208.56,514.48 143.825,521.171 137.271,457.759 					"/>
					<polygon fill="#F1A34F" points="103.757,509.059 115.942,507.799 114.515,504.48 115.335,501.92 103.148,503.179 					"/>
					<polygon fill="#F1A34F" points="101.117,483.518 113.303,482.259 111.875,478.94 112.695,476.379 100.51,477.639 					"/>
					<polygon opacity="0.4" fill="#D86713" points="204.258,472.858 192.071,474.118 192.791,470.578 191.464,468.239 
						203.65,466.979 					"/>
				</g>
			</g>
			<g>
				<g>
					<g>
						<path fill="#DDB997" d="M116.956,543.201c-0.384-0.256-0.81-0.468-1.277-0.681c-1.192-0.47-2.556-0.682-3.96-0.555
							c-3.32,0.342-6.004,2.684-6.94,5.707c-0.341,1.021-0.468,2.129-0.341,3.277c0.468,4.472,4.513,7.751,8.984,7.281
							c1.831-0.17,3.449-0.936,4.685-2.171c1.83-1.618,2.895-4.13,2.597-6.813C120.448,546.693,119,544.479,116.956,543.201z
							 M117.297,555.593c-1.064,0.936-2.427,1.532-3.96,1.703c-3.96,0.382-7.537-2.471-7.92-6.43c-0.085-0.895,0-1.789,0.255-2.64
							c0.725-2.812,3.109-5.025,6.176-5.322c1.19-0.13,2.341,0.041,3.362,0.511c0.511,0.17,0.979,0.424,1.405,0.723
							c1.703,1.15,2.938,3.023,3.151,5.237C120.022,551.802,119.043,554.103,117.297,555.593z"/>
					</g>
					<polygon fill="#D3671E" points="107.851,546.391 113.029,554.448 119.969,534.502 112.423,548.582 					"/>
				</g>
				<g>
					<g>
						<path fill="#DDB997" d="M123.813,579.267c-0.256-2.598-1.704-4.769-3.748-6.09c-0.384-0.255-0.852-0.467-1.277-0.682
							c-1.235-0.467-2.555-0.68-3.96-0.553c-4.471,0.469-7.749,4.514-7.281,8.985c0.468,4.471,4.471,7.75,8.984,7.281
							C121.001,587.782,124.28,583.737,123.813,579.267z M116.402,587.272c-3.96,0.425-7.493-2.471-7.919-6.43
							c-0.384-3.96,2.512-7.537,6.473-7.921c1.19-0.128,2.341,0.042,3.362,0.469c0.511,0.169,0.98,0.425,1.405,0.724
							c1.704,1.15,2.938,3.023,3.15,5.237C123.259,583.312,120.363,586.846,116.402,587.272z"/>
					</g>
					<polygon fill="#D3671E" points="110.949,576.373 116.128,584.431 123.067,564.485 115.521,578.563 					"/>
				</g>
				<g>
					<g>
						<path fill="#DDB997" d="M126.92,609.243c-0.469-4.514-4.514-7.791-8.984-7.323s-7.75,4.513-7.281,8.983
							c0.468,4.514,4.471,7.75,8.984,7.324C124.109,617.759,127.388,613.714,126.92,609.243z M119.511,617.249
							c-3.96,0.425-7.494-2.471-7.92-6.431c-0.384-3.96,2.47-7.536,6.431-7.92c3.959-0.426,7.536,2.471,7.92,6.431
							C126.366,613.288,123.472,616.822,119.511,617.249z"/>
					</g>
				</g>
				<g>
					<path fill="#DDB997" d="M209.638,538.782l-77.002,7.958c-0.779,0.081-1.484-0.491-1.563-1.271l-0.033-0.313
						c-0.081-0.779,0.491-1.483,1.271-1.564l77.002-7.958c0.779-0.08,1.483,0.492,1.564,1.271l0.032,0.313
						C210.989,537.998,210.418,538.702,209.638,538.782z"/>
					<path fill="#DDB997" d="M210.217,544.39l-77.002,7.957c-0.779,0.081-1.483-0.49-1.564-1.271l-0.032-0.313
						c-0.08-0.78,0.491-1.484,1.271-1.564l77.002-7.959c0.78-0.08,1.483,0.492,1.564,1.272l0.032,0.313
						C211.569,543.604,210.997,544.309,210.217,544.39z"/>
				</g>
				<g>
					<path fill="#DDB997" d="M212.741,568.815l-77.001,7.958c-0.781,0.081-1.484-0.491-1.565-1.271l-0.032-0.313
						c-0.081-0.779,0.492-1.484,1.271-1.564l77.002-7.958c0.779-0.08,1.483,0.491,1.564,1.271l0.032,0.313
						C214.094,568.03,213.521,568.735,212.741,568.815z"/>
					<path fill="#DDB997" d="M213.321,574.423l-77.002,7.957c-0.78,0.081-1.484-0.491-1.565-1.271l-0.031-0.313
						c-0.081-0.78,0.491-1.484,1.271-1.565l77.001-7.958c0.78-0.08,1.484,0.492,1.564,1.271l0.033,0.313
						C214.673,573.638,214.101,574.342,213.321,574.423z"/>
				</g>
				<g>
					<path fill="#DDB997" d="M215.846,598.849l-77.002,7.958c-0.78,0.081-1.484-0.491-1.564-1.271l-0.032-0.313
						c-0.081-0.779,0.491-1.484,1.271-1.564l77.001-7.959c0.78-0.08,1.484,0.492,1.565,1.272l0.032,0.313
						C217.197,598.064,216.625,598.769,215.846,598.849z"/>
					<path fill="#DDB997" d="M216.425,604.456l-77.002,7.957c-0.779,0.08-1.483-0.49-1.564-1.271l-0.033-0.313
						c-0.08-0.781,0.493-1.484,1.272-1.565l77.001-7.958c0.78-0.08,1.484,0.492,1.565,1.271l0.032,0.314
						C217.777,603.671,217.204,604.375,216.425,604.456z"/>
				</g>
			</g>
		</g>
		<g>
			<path fill="#FFB27D" d="M229.498,435.813c0,0,20.9-18.571,34.61-8.031s-30.843,44.49-30.843,44.49L229.498,435.813z"/>
			<path fill="#FFB27D" d="M253.679,512.036l-24.288,13.437c-7.041,3.895-15.989,1.32-19.885-5.721l-3.967-7.172
				c-3.895-7.041-1.32-15.988,5.721-19.884l24.288-13.436c7.042-3.896,15.989-1.321,19.884,5.72l3.968,7.172
				C263.294,499.193,260.721,508.142,253.679,512.036z"/>
			<path fill="#FFB27D" d="M257.885,552.73l-24.288,13.437c-7.042,3.895-15.989,1.32-19.885-5.721l-3.967-7.172
				c-3.896-7.041-1.321-15.988,5.72-19.884l24.289-13.436c7.041-3.895,15.989-1.32,19.884,5.721l3.967,7.172
				C267.5,539.889,264.926,548.836,257.885,552.73z"/>
			<path fill="#FFB27D" d="M261.977,592.326l-24.288,13.437c-7.041,3.895-15.989,1.32-19.885-5.721l-3.967-7.172
				c-3.895-7.041-1.32-15.989,5.721-19.884l24.288-13.437c7.041-3.895,15.989-1.32,19.885,5.721l3.967,7.172
				C271.592,579.483,269.018,588.431,261.977,592.326z"/>
			<path fill="#FFC197" d="M206.686,502.981c3.77-2.835,8.912-6.401,13.621-8.651c3.257-1.555,7.153-0.439,9.007,2.658l5.326,8.9
				c1.848,3.088,0.896,7.095-2.168,8.982c-3.761,2.32-9.05,5.348-14.462,7.687c-3.794,1.64-8.218,0.118-10.25-3.481l-3.232-5.73
				C202.545,509.834,203.463,505.406,206.686,502.981z"/>
			<path fill="#FFC197" d="M211.008,544.798c3.769-2.836,8.911-6.402,13.62-8.65c3.259-1.557,7.154-0.44,9.008,2.657l5.324,8.9
				c1.849,3.088,0.896,7.095-2.167,8.983c-3.761,2.318-9.05,5.346-14.462,7.686c-3.794,1.639-8.217,0.118-10.249-3.482l-3.232-5.729
				C206.867,551.649,207.784,547.222,211.008,544.798z"/>
			<path fill="#FFC197" d="M215.828,583.989c3.77-2.834,8.911-6.401,13.62-8.65c3.258-1.556,7.154-0.439,9.007,2.658l5.326,8.9
				c1.848,3.088,0.896,7.094-2.167,8.982c-3.762,2.319-9.05,5.347-14.462,7.686c-3.795,1.641-8.219,0.118-10.25-3.48l-3.232-5.73
				C211.688,590.842,212.604,586.415,215.828,583.989z"/>
		</g>
	</g>
	<g>
		<polygon fill="#CA5F00" points="349.205,673.178 405.354,682.014 368.382,656.027 366.366,664.158 352.647,666.439 		"/>
		<polygon fill="#F1A34F" points="405.354,682.014 358.879,657.199 313.023,654.231 		"/>
		<polygon fill="#F1A34F" points="368.382,656.027 405.354,682.014 377.021,641.824 		"/>
	</g>
	<g>
		<polygon fill="#CA5F00" points="286.063,332.634 242.456,310.165 281.45,310.914 278.709,317.604 287.099,326.186 		"/>
		<polygon fill="#F1A34F" points="242.456,310.165 287.469,316.574 320.917,337.882 		"/>
		<polygon fill="#F1A34F" points="281.45,310.914 242.456,310.165 282.673,296.619 		"/>
	</g>
</g>
</svg>
